<svg xmlns="http://www.w3.org/2000/svg" width="1288" height="648" fill="none" viewBox="0 0 1288 648"><rect width="1288" height="648" fill="#E5E5E5"/><g filter="url(#filter0_d)"><rect width="1280" height="640" x="4" fill="#F7F176"/></g><path fill="#000" d="M188.9 222.89V262.41C185.26 264.49 180.927 266.137 175.9 267.35C170.873 268.477 165.76 269.04 160.56 269.04C153.107 269.04 146.39 267.87 140.41 265.53C134.517 263.19 129.447 259.983 125.2 255.91C120.953 251.75 117.703 246.853 115.45 241.22C113.197 235.587 112.07 229.433 112.07 222.76C112.07 215.393 113.37 208.677 115.97 202.61C118.657 196.457 122.253 191.17 126.76 186.75C131.353 182.33 136.597 178.907 142.49 176.48C148.47 173.967 154.797 172.71 161.47 172.71C165.977 172.71 170.7 173.317 175.64 174.53C180.58 175.657 184.87 177.303 188.51 179.47L181.62 191.04C180.32 190.26 178.803 189.567 177.07 188.96C175.423 188.353 173.69 187.833 171.87 187.4C170.05 186.967 168.23 186.663 166.41 186.49C164.59 186.23 162.857 186.1 161.21 186.1C156.617 186.1 152.197 187.01 147.95 188.83C143.703 190.65 139.977 193.163 136.77 196.37C133.563 199.577 131.007 203.347 129.1 207.68C127.193 212.013 126.24 216.693 126.24 221.72C126.24 226.313 127.063 230.647 128.71 234.72C130.443 238.793 132.827 242.39 135.86 245.51C138.893 248.63 142.533 251.1 146.78 252.92C151.027 254.74 155.707 255.65 160.82 255.65C162.813 255.65 165.153 255.477 167.84 255.13C170.613 254.697 173.257 254.003 175.77 253.05V235.11H157.44V222.89H188.9ZM200.968 192.86C200.968 190.78 201.704 189.047 203.178 187.66C204.738 186.273 206.384 185.58 208.118 185.58C209.851 185.58 211.454 186.273 212.928 187.66C214.401 189.047 215.138 190.78 215.138 192.86C215.138 194.94 214.401 196.673 212.928 198.06C211.454 199.36 209.851 200.01 208.118 200.01C206.384 200.01 204.738 199.36 203.178 198.06C201.704 196.673 200.968 194.94 200.968 192.86ZM213.448 268H202.398V213.66H213.448V268ZM233.738 189.74H244.788V213.79H259.348V223.67H244.788V268H233.738V223.67H223.988V213.79H233.738V189.74ZM269.898 268V173.75H284.068V213.79H331.258V173.75H345.558C345.558 174.877 345.558 177 345.558 180.12C345.558 183.153 345.558 186.793 345.558 191.04C345.558 195.287 345.558 200.01 345.558 205.21C345.558 210.323 345.515 215.567 345.428 220.94C345.428 226.227 345.428 231.47 345.428 236.67C345.428 241.783 345.428 246.463 345.428 250.71C345.428 254.957 345.428 258.64 345.428 261.76C345.428 264.793 345.428 266.873 345.428 268H331.258V227.31H284.068V268H269.898ZM414.325 269.17H404.965L403.665 254.09C401.672 258.51 398.855 262.15 395.215 265.01C391.662 267.87 387.112 269.3 381.565 269.3C376.018 269.3 371.598 267.827 368.305 264.88C365.098 261.847 363.408 257.903 363.235 253.05V213.66H374.285V248.11C374.458 250.797 375.412 253.093 377.145 255C378.965 256.907 381.738 257.99 385.465 258.25C388.065 258.25 390.448 257.817 392.615 256.95C394.782 255.997 396.645 254.74 398.205 253.18C399.765 251.62 400.978 249.757 401.845 247.59C402.712 245.423 403.145 243.04 403.145 240.44V213.66H414.325V269.17ZM488.008 240.96C488.008 245.033 487.314 248.803 485.928 252.27C484.541 255.737 482.591 258.727 480.078 261.24C477.564 263.753 474.531 265.747 470.978 267.22C467.511 268.607 463.698 269.3 459.538 269.3C457.371 269.3 455.291 269.04 453.298 268.52C451.391 268.087 449.614 267.48 447.968 266.7C446.321 265.833 444.891 264.923 443.678 263.97C442.464 262.93 441.554 261.89 440.948 260.85C440.948 261.283 440.948 261.76 440.948 262.28C441.034 262.713 441.078 263.147 441.078 263.58V268H429.898V166.99H441.078V221.59C441.771 220.55 442.681 219.51 443.808 218.47C445.021 217.343 446.408 216.347 447.968 215.48C449.614 214.527 451.434 213.747 453.428 213.14C455.421 212.533 457.631 212.23 460.058 212.23C464.218 212.23 467.988 212.923 471.368 214.31C474.834 215.61 477.781 217.517 480.208 220.03C482.721 222.457 484.628 225.447 485.928 229C487.314 232.553 488.008 236.54 488.008 240.96ZM475.918 240.7C475.918 238.187 475.528 235.89 474.748 233.81C473.968 231.643 472.841 229.78 471.368 228.22C469.894 226.66 468.118 225.447 466.038 224.58C463.958 223.627 461.618 223.15 459.018 223.15C456.418 223.15 453.991 223.627 451.738 224.58C449.571 225.447 447.708 226.66 446.148 228.22C444.588 229.78 443.331 231.643 442.378 233.81C441.511 235.89 441.078 238.187 441.078 240.7C441.078 243.213 441.511 245.553 442.378 247.72C443.331 249.887 444.588 251.75 446.148 253.31C447.708 254.87 449.571 256.127 451.738 257.08C453.991 257.947 456.418 258.38 459.018 258.38C461.618 258.38 463.958 257.947 466.038 257.08C468.118 256.127 469.894 254.87 471.368 253.31C472.841 251.663 473.968 249.8 474.748 247.72C475.528 245.553 475.918 243.213 475.918 240.7ZM592.204 268C591.77 267.047 591.164 265.66 590.384 263.84C589.604 262.02 588.694 259.94 587.654 257.6C586.7 255.173 585.617 252.573 584.404 249.8C583.277 246.94 582.107 243.993 580.894 240.96H547.614L536.434 268H522.394L564.384 169.33C564.904 170.543 565.814 172.753 567.114 175.96C568.5 179.167 570.104 183.023 571.924 187.53C573.83 191.95 575.91 196.89 578.164 202.35C580.504 207.723 582.844 213.183 585.184 218.73C587.61 224.277 589.95 229.737 592.204 235.11C594.544 240.483 596.667 245.423 598.574 249.93C600.48 254.437 602.084 258.293 603.384 261.5C604.77 264.62 605.724 266.787 606.244 268H592.204ZM552.554 229H576.084C574.87 226.14 573.7 223.41 572.574 220.81C571.534 218.123 570.537 215.697 569.584 213.53C568.717 211.277 567.937 209.327 567.244 207.68C566.55 206.033 566.03 204.733 565.684 203.78C565.597 203.607 565.38 203 565.034 201.96C564.774 200.92 564.557 199.967 564.384 199.1C564.21 199.967 563.95 200.92 563.604 201.96C563.257 203 563.04 203.607 562.954 203.78L552.554 229ZM649.237 254.61C650.45 256.083 651.577 257.513 652.617 258.9C653.744 260.2 654.87 261.587 655.997 263.06C653.57 264.967 650.84 266.483 647.807 267.61C644.774 268.737 641.48 269.3 637.927 269.3C633.94 269.3 630.17 268.563 626.617 267.09C623.15 265.53 620.117 263.45 617.517 260.85C614.917 258.25 612.837 255.217 611.277 251.75C609.804 248.283 609.067 244.6 609.067 240.7C609.067 236.8 609.804 233.117 611.277 229.65C612.837 226.183 614.917 223.193 617.517 220.68C620.117 218.08 623.15 216.043 626.617 214.57C630.17 213.01 633.94 212.23 637.927 212.23C641.567 212.23 644.904 212.793 647.937 213.92C651.057 215.047 653.874 216.563 656.387 218.47L649.237 226.92C647.764 225.707 646.074 224.797 644.167 224.19C642.26 223.497 640.18 223.15 637.927 223.15C635.327 223.15 632.944 223.627 630.777 224.58C628.61 225.447 626.704 226.66 625.057 228.22C623.497 229.78 622.284 231.643 621.417 233.81C620.55 235.89 620.117 238.187 620.117 240.7C620.117 243.213 620.55 245.553 621.417 247.72C622.284 249.8 623.497 251.663 625.057 253.31C626.704 254.87 628.61 256.127 630.777 257.08C632.944 257.947 635.327 258.38 637.927 258.38C640.18 258.38 642.26 258.077 644.167 257.47C646.074 256.777 647.764 255.823 649.237 254.61ZM671.599 189.74H682.649V213.79H697.209V223.67H682.649V268H671.599V223.67H661.849V213.79H671.599V189.74ZM704.972 192.86C704.972 190.78 705.708 189.047 707.182 187.66C708.742 186.273 710.388 185.58 712.122 185.58C713.855 185.58 715.458 186.273 716.932 187.66C718.405 189.047 719.142 190.78 719.142 192.86C719.142 194.94 718.405 196.673 716.932 198.06C715.458 199.36 713.855 200.01 712.122 200.01C710.388 200.01 708.742 199.36 707.182 198.06C705.708 196.673 704.972 194.94 704.972 192.86ZM717.452 268H706.402V213.66H717.452V268ZM729.292 240.7C729.292 236.8 730.028 233.117 731.502 229.65C733.062 226.183 735.142 223.193 737.742 220.68C740.342 218.08 743.375 216.043 746.842 214.57C750.395 213.01 754.208 212.23 758.282 212.23C762.355 212.23 766.125 213.01 769.592 214.57C773.145 216.043 776.178 218.08 778.692 220.68C781.292 223.193 783.285 226.183 784.672 229.65C786.145 233.117 786.882 236.8 786.882 240.7C786.882 244.6 786.145 248.283 784.672 251.75C783.285 255.217 781.292 258.25 778.692 260.85C776.178 263.45 773.145 265.53 769.592 267.09C766.125 268.563 762.312 269.3 758.152 269.3C754.165 269.3 750.395 268.607 746.842 267.22C743.375 265.833 740.342 263.883 737.742 261.37C735.142 258.857 733.062 255.867 731.502 252.4C730.028 248.847 729.292 244.947 729.292 240.7ZM740.342 240.83C740.342 243.257 740.775 245.553 741.642 247.72C742.595 249.8 743.852 251.663 745.412 253.31C747.058 254.87 748.922 256.127 751.002 257.08C753.168 257.947 755.465 258.38 757.892 258.38C760.318 258.38 762.615 257.947 764.782 257.08C766.948 256.127 768.812 254.87 770.372 253.31C772.018 251.663 773.318 249.8 774.272 247.72C775.225 245.553 775.702 243.257 775.702 240.83C775.702 238.403 775.225 236.107 774.272 233.94C773.318 231.773 772.018 229.91 770.372 228.35C768.812 226.703 766.948 225.447 764.782 224.58C762.615 223.627 760.318 223.15 757.892 223.15C755.465 223.15 753.168 223.627 751.002 224.58C748.922 225.447 747.058 226.703 745.412 228.35C743.852 229.91 742.595 231.773 741.642 233.94C740.775 236.107 740.342 238.403 740.342 240.83ZM798.696 213.66H808.446C808.62 216.347 808.75 218.817 808.836 221.07C809.01 223.237 809.183 225.403 809.356 227.57C811.35 222.89 814.166 219.163 817.806 216.39C821.533 213.617 826.083 212.23 831.456 212.23C836.916 212.23 841.293 213.747 844.586 216.78C847.88 219.813 849.613 223.713 849.786 228.48V268H838.606V233.55C838.433 230.777 837.48 228.437 835.746 226.53C834.013 224.537 831.283 223.453 827.556 223.28C824.956 223.28 822.573 223.757 820.406 224.71C818.24 225.577 816.376 226.79 814.816 228.35C813.256 229.91 812 231.773 811.046 233.94C810.18 236.107 809.746 238.49 809.746 241.09V268H798.696V213.66ZM895.129 218.47L889.279 226.27C889.192 226.183 888.889 225.967 888.369 225.62C887.849 225.273 887.156 224.927 886.289 224.58C885.509 224.233 884.556 223.93 883.429 223.67C882.389 223.323 881.306 223.15 880.179 223.15C878.706 223.15 877.232 223.497 875.759 224.19C874.372 224.883 873.679 226.183 873.679 228.09C873.679 229.737 874.242 231.08 875.369 232.12C876.582 233.16 878.056 234.113 879.789 234.98C881.522 235.76 883.386 236.583 885.379 237.45C887.459 238.317 889.366 239.4 891.099 240.7C892.832 241.913 894.262 243.473 895.389 245.38C896.602 247.2 897.209 249.54 897.209 252.4C897.209 257.253 895.519 261.283 892.139 264.49C888.846 267.61 884.296 269.17 878.489 269.17C875.109 269.17 871.772 268.607 868.479 267.48C865.272 266.267 862.672 264.533 860.679 262.28C861.286 261.673 861.936 260.893 862.629 259.94C863.409 258.987 864.146 258.077 864.839 257.21C865.619 256.343 866.226 255.65 866.659 255.13C867.179 254.523 867.482 254.22 867.569 254.22C867.569 254.307 867.872 254.567 868.479 255C869.172 255.433 870.039 255.91 871.079 256.43C872.119 256.863 873.289 257.297 874.589 257.73C875.889 258.077 877.189 258.25 878.489 258.25C880.569 258.25 882.346 257.73 883.819 256.69C885.292 255.65 886.029 254.263 886.029 252.53C886.029 250.97 885.422 249.757 884.209 248.89C883.082 247.937 881.652 247.07 879.919 246.29C878.186 245.51 876.279 244.73 874.199 243.95C872.119 243.083 870.212 242 868.479 240.7C866.746 239.4 865.272 237.797 864.059 235.89C862.932 233.897 862.369 231.34 862.369 228.22C862.369 225.273 862.889 222.803 863.929 220.81C865.056 218.817 866.442 217.213 868.089 216C869.822 214.7 871.729 213.79 873.809 213.27C875.889 212.663 877.882 212.36 879.789 212.36C882.302 212.36 884.989 212.88 887.849 213.92C890.709 214.96 893.136 216.477 895.129 218.47ZM110.12 419.45V408.53H119.35V395.92C119.35 384.567 121.993 376.16 127.28 370.7C132.653 365.153 140.237 362.25 150.03 361.99V372.65C143.27 372.997 138.33 375.163 135.21 379.15C132.09 383.137 130.53 388.813 130.53 396.18V408.53H147.69V419.45H130.53V463H119.35V419.45H110.12ZM151.782 435.7C151.782 431.8 152.519 428.117 153.992 424.65C155.552 421.183 157.632 418.193 160.232 415.68C162.832 413.08 165.865 411.043 169.332 409.57C172.885 408.01 176.699 407.23 180.772 407.23C184.845 407.23 188.615 408.01 192.082 409.57C195.635 411.043 198.669 413.08 201.182 415.68C203.782 418.193 205.775 421.183 207.162 424.65C208.635 428.117 209.372 431.8 209.372 435.7C209.372 439.6 208.635 443.283 207.162 446.75C205.775 450.217 203.782 453.25 201.182 455.85C198.669 458.45 195.635 460.53 192.082 462.09C188.615 463.563 184.802 464.3 180.642 464.3C176.655 464.3 172.885 463.607 169.332 462.22C165.865 460.833 162.832 458.883 160.232 456.37C157.632 453.857 155.552 450.867 153.992 447.4C152.519 443.847 151.782 439.947 151.782 435.7ZM162.832 435.83C162.832 438.257 163.265 440.553 164.132 442.72C165.085 444.8 166.342 446.663 167.902 448.31C169.549 449.87 171.412 451.127 173.492 452.08C175.659 452.947 177.955 453.38 180.382 453.38C182.809 453.38 185.105 452.947 187.272 452.08C189.439 451.127 191.302 449.87 192.862 448.31C194.509 446.663 195.809 444.8 196.762 442.72C197.715 440.553 198.192 438.257 198.192 435.83C198.192 433.403 197.715 431.107 196.762 428.94C195.809 426.773 194.509 424.91 192.862 423.35C191.302 421.703 189.439 420.447 187.272 419.58C185.105 418.627 182.809 418.15 180.382 418.15C177.955 418.15 175.659 418.627 173.492 419.58C171.412 420.447 169.549 421.703 167.902 423.35C166.342 424.91 165.085 426.773 164.132 428.94C163.265 431.107 162.832 433.403 162.832 435.83ZM251.087 421.53C248.66 421.53 246.32 421.877 244.067 422.57C241.813 423.177 239.777 424.13 237.957 425.43C236.223 426.73 234.837 428.377 233.797 430.37C232.757 432.277 232.237 434.487 232.237 437V463H221.187V408.66H230.937C231.11 411.347 231.24 413.817 231.327 416.07C231.5 418.237 231.673 420.403 231.847 422.57C232.973 420.23 234.447 418.107 236.267 416.2C238.087 414.293 240.037 412.69 242.117 411.39C244.197 410.09 246.233 409.093 248.227 408.4C250.22 407.62 251.997 407.23 253.557 407.23L251.087 421.53ZM365.619 417.89V457.41C361.979 459.49 357.645 461.137 352.619 462.35C347.592 463.477 342.479 464.04 337.279 464.04C329.825 464.04 323.109 462.87 317.129 460.53C311.235 458.19 306.165 454.983 301.919 450.91C297.672 446.75 294.422 441.853 292.169 436.22C289.915 430.587 288.789 424.433 288.789 417.76C288.789 410.393 290.089 403.677 292.689 397.61C295.375 391.457 298.972 386.17 303.479 381.75C308.072 377.33 313.315 373.907 319.209 371.48C325.189 368.967 331.515 367.71 338.189 367.71C342.695 367.71 347.419 368.317 352.359 369.53C357.299 370.657 361.589 372.303 365.229 374.47L358.339 386.04C357.039 385.26 355.522 384.567 353.789 383.96C352.142 383.353 350.409 382.833 348.589 382.4C346.769 381.967 344.949 381.663 343.129 381.49C341.309 381.23 339.575 381.1 337.929 381.1C333.335 381.1 328.915 382.01 324.669 383.83C320.422 385.65 316.695 388.163 313.489 391.37C310.282 394.577 307.725 398.347 305.819 402.68C303.912 407.013 302.959 411.693 302.959 416.72C302.959 421.313 303.782 425.647 305.429 429.72C307.162 433.793 309.545 437.39 312.579 440.51C315.612 443.63 319.252 446.1 323.499 447.92C327.745 449.74 332.425 450.65 337.539 450.65C339.532 450.65 341.872 450.477 344.559 450.13C347.332 449.697 349.975 449.003 352.489 448.05V430.11H334.159V417.89H365.619ZM377.686 387.86C377.686 385.78 378.423 384.047 379.896 382.66C381.456 381.273 383.103 380.58 384.836 380.58C386.57 380.58 388.173 381.273 389.646 382.66C391.12 384.047 391.856 385.78 391.856 387.86C391.856 389.94 391.12 391.673 389.646 393.06C388.173 394.36 386.57 395.01 384.836 395.01C383.103 395.01 381.456 394.36 379.896 393.06C378.423 391.673 377.686 389.94 377.686 387.86ZM390.166 463H379.116V408.66H390.166V463ZM410.457 384.74H421.507V408.79H436.067V418.67H421.507V463H410.457V418.67H400.707V408.79H410.457V384.74ZM446.617 463V368.75H460.787V408.79H507.977V368.75H522.277C522.277 369.877 522.277 372 522.277 375.12C522.277 378.153 522.277 381.793 522.277 386.04C522.277 390.287 522.277 395.01 522.277 400.21C522.277 405.323 522.234 410.567 522.147 415.94C522.147 421.227 522.147 426.47 522.147 431.67C522.147 436.783 522.147 441.463 522.147 445.71C522.147 449.957 522.147 453.64 522.147 456.76C522.147 459.793 522.147 461.873 522.147 463H507.977V422.31H460.787V463H446.617ZM591.044 464.17H581.684L580.384 449.09C578.39 453.51 575.574 457.15 571.934 460.01C568.38 462.87 563.83 464.3 558.284 464.3C552.737 464.3 548.317 462.827 545.024 459.88C541.817 456.847 540.127 452.903 539.954 448.05V408.66H551.004V443.11C551.177 445.797 552.13 448.093 553.864 450C555.684 451.907 558.457 452.99 562.184 453.25C564.784 453.25 567.167 452.817 569.334 451.95C571.5 450.997 573.364 449.74 574.924 448.18C576.484 446.62 577.697 444.757 578.564 442.59C579.43 440.423 579.864 438.04 579.864 435.44V408.66H591.044V464.17ZM664.726 435.96C664.726 440.033 664.033 443.803 662.646 447.27C661.26 450.737 659.31 453.727 656.796 456.24C654.283 458.753 651.25 460.747 647.696 462.22C644.23 463.607 640.416 464.3 636.256 464.3C634.09 464.3 632.01 464.04 630.016 463.52C628.11 463.087 626.333 462.48 624.686 461.7C623.04 460.833 621.61 459.923 620.396 458.97C619.183 457.93 618.273 456.89 617.666 455.85C617.666 456.283 617.666 456.76 617.666 457.28C617.753 457.713 617.796 458.147 617.796 458.58V463H606.616V361.99H617.796V416.59C618.49 415.55 619.4 414.51 620.526 413.47C621.74 412.343 623.126 411.347 624.686 410.48C626.333 409.527 628.153 408.747 630.146 408.14C632.14 407.533 634.35 407.23 636.776 407.23C640.936 407.23 644.706 407.923 648.086 409.31C651.553 410.61 654.5 412.517 656.926 415.03C659.44 417.457 661.346 420.447 662.646 424C664.033 427.553 664.726 431.54 664.726 435.96ZM652.636 435.7C652.636 433.187 652.246 430.89 651.466 428.81C650.686 426.643 649.56 424.78 648.086 423.22C646.613 421.66 644.836 420.447 642.756 419.58C640.676 418.627 638.336 418.15 635.736 418.15C633.136 418.15 630.71 418.627 628.456 419.58C626.29 420.447 624.426 421.66 622.866 423.22C621.306 424.78 620.05 426.643 619.096 428.81C618.23 430.89 617.796 433.187 617.796 435.7C617.796 438.213 618.23 440.553 619.096 442.72C620.05 444.887 621.306 446.75 622.866 448.31C624.426 449.87 626.29 451.127 628.456 452.08C630.71 452.947 633.136 453.38 635.736 453.38C638.336 453.38 640.676 452.947 642.756 452.08C644.836 451.127 646.613 449.87 648.086 448.31C649.56 446.663 650.686 444.8 651.466 442.72C652.246 440.553 652.636 438.213 652.636 435.7ZM724.852 415.94H737.722C741.189 415.94 744.092 415.333 746.432 414.12C748.772 412.907 750.592 411.433 751.892 409.7C753.279 407.967 754.232 406.103 754.752 404.11C755.359 402.117 755.662 400.34 755.662 398.78C755.662 397.133 755.359 395.357 754.752 393.45C754.232 391.457 753.279 389.637 751.892 387.99C750.506 386.257 748.642 384.827 746.302 383.7C744.049 382.573 741.232 382.01 737.852 382.01H724.852V415.94ZM710.552 463V368.75H736.292C741.232 368.75 745.739 369.4 749.812 370.7C753.972 372 757.526 373.95 760.472 376.55C763.506 379.063 765.846 382.183 767.492 385.91C769.139 389.55 769.962 393.753 769.962 398.52C769.962 402.247 769.399 405.973 768.272 409.7C767.146 413.34 765.326 416.633 762.812 419.58C760.299 422.44 757.006 424.78 752.932 426.6C748.859 428.42 743.919 429.33 738.112 429.33H724.852V463H710.552ZM771.059 436.35C771.059 432.363 771.796 428.637 773.269 425.17C774.829 421.617 776.909 418.54 779.509 415.94C782.109 413.253 785.099 411.13 788.479 409.57C791.946 408.01 795.629 407.23 799.529 407.23C802.129 407.23 804.513 407.577 806.679 408.27C808.846 408.877 810.709 409.657 812.269 410.61C813.829 411.563 815.086 412.56 816.039 413.6C816.993 414.64 817.643 415.55 817.989 416.33L818.509 408.66H829.169V463H817.989V456.11C817.556 456.803 816.863 457.627 815.909 458.58C814.956 459.533 813.699 460.443 812.139 461.31C810.666 462.09 808.889 462.783 806.809 463.39C804.729 463.997 802.346 464.3 799.659 464.3C795.499 464.3 791.643 463.563 788.089 462.09C784.623 460.53 781.633 458.493 779.119 455.98C776.606 453.38 774.613 450.39 773.139 447.01C771.753 443.63 771.059 440.077 771.059 436.35ZM782.239 435.7C782.239 438.213 782.673 440.553 783.539 442.72C784.493 444.887 785.749 446.75 787.309 448.31C788.869 449.87 790.733 451.127 792.899 452.08C795.066 452.947 797.449 453.38 800.049 453.38C802.649 453.38 805.033 452.947 807.199 452.08C809.453 451.127 811.359 449.87 812.919 448.31C814.566 446.663 815.823 444.8 816.689 442.72C817.556 440.553 817.989 438.213 817.989 435.7C817.989 433.187 817.556 430.89 816.689 428.81C815.823 426.643 814.566 424.78 812.919 423.22C811.359 421.66 809.453 420.447 807.199 419.58C805.033 418.627 802.649 418.15 800.049 418.15C797.449 418.15 795.066 418.627 792.899 419.58C790.733 420.447 788.869 421.66 787.309 423.22C785.749 424.78 784.493 426.643 783.539 428.81C782.673 430.89 782.239 433.187 782.239 435.7ZM841.14 435.96C841.14 431.887 841.877 428.117 843.35 424.65C844.824 421.097 846.817 418.063 849.33 415.55C851.844 412.95 854.79 410.913 858.17 409.44C861.55 407.967 865.147 407.23 868.96 407.23C871.907 407.23 874.507 407.62 876.76 408.4C879.1 409.18 881.05 410.09 882.61 411.13C884.17 412.17 885.384 413.21 886.25 414.25C887.204 415.203 887.81 415.897 888.07 416.33C888.07 415.117 888.157 413.86 888.33 412.56C888.504 411.173 888.59 409.873 888.59 408.66H899.25V460.53C899.25 469.543 896.607 476.563 891.32 481.59C886.034 486.617 878.884 489.13 869.87 489.13C866.75 489.13 863.934 488.783 861.42 488.09C858.994 487.483 856.74 486.66 854.66 485.62C852.667 484.58 850.804 483.367 849.07 481.98C847.424 480.593 845.777 479.163 844.13 477.69L851.28 470.15C853.967 472.663 856.697 474.657 859.47 476.13C862.33 477.603 865.71 478.34 869.61 478.34C875.417 478.34 879.924 476.953 883.13 474.18C886.337 471.407 887.984 467.55 888.07 462.61V458.84C888.07 458.147 888.157 457.41 888.33 456.63C888.504 455.763 888.59 455.113 888.59 454.68C887.81 455.72 886.814 456.847 885.6 458.06C884.474 459.187 883.13 460.227 881.57 461.18C880.01 462.047 878.19 462.783 876.11 463.39C874.03 463.997 871.69 464.3 869.09 464.3C865.017 464.3 861.29 463.563 857.91 462.09C854.53 460.617 851.584 458.623 849.07 456.11C846.557 453.51 844.607 450.52 843.22 447.14C841.834 443.673 841.14 439.947 841.14 435.96ZM852.32 435.7C852.32 438.213 852.754 440.553 853.62 442.72C854.574 444.887 855.83 446.75 857.39 448.31C858.95 449.87 860.814 451.127 862.98 452.08C865.147 452.947 867.53 453.38 870.13 453.38C872.73 453.38 875.114 452.947 877.28 452.08C879.534 451.127 881.44 449.87 883 448.31C884.647 446.663 885.904 444.8 886.77 442.72C887.637 440.553 888.07 438.213 888.07 435.7C888.07 433.187 887.637 430.89 886.77 428.81C885.904 426.643 884.647 424.78 883 423.22C881.44 421.66 879.534 420.447 877.28 419.58C875.114 418.627 872.73 418.15 870.13 418.15C867.53 418.15 865.147 418.627 862.98 419.58C860.814 420.447 858.95 421.66 857.39 423.22C855.83 424.78 854.574 426.643 853.62 428.81C852.754 430.89 852.32 433.187 852.32 435.7ZM960.879 456.63C958.279 458.97 955.115 460.833 951.389 462.22C947.662 463.607 943.849 464.3 939.949 464.3C935.962 464.3 932.192 463.563 928.639 462.09C925.172 460.53 922.139 458.493 919.539 455.98C916.939 453.38 914.859 450.347 913.299 446.88C911.825 443.413 911.089 439.73 911.089 435.83C911.089 431.93 911.825 428.247 913.299 424.78C914.859 421.313 916.939 418.28 919.539 415.68C922.139 413.08 925.129 411.043 928.509 409.57C931.975 408.01 935.659 407.23 939.559 407.23C945.712 407.23 951.042 409.093 955.549 412.82C960.142 416.46 963.435 421.27 965.429 427.25C962.742 428.203 959.665 429.373 956.199 430.76C952.732 432.147 949.135 433.62 945.409 435.18C941.682 436.653 937.955 438.127 934.229 439.6C930.502 441.073 927.035 442.417 923.829 443.63C925.302 446.577 927.425 448.96 930.199 450.78C933.059 452.513 936.222 453.38 939.689 453.38C942.029 453.38 944.369 452.947 946.709 452.08C949.135 451.213 951.085 450.043 952.559 448.57L960.879 456.63ZM951.519 424.65C950.479 422.483 948.832 420.88 946.579 419.84C944.325 418.713 942.029 418.15 939.689 418.15C937.175 418.15 934.835 418.627 932.669 419.58C930.589 420.533 928.769 421.833 927.209 423.48C925.649 425.04 924.392 426.86 923.439 428.94C922.572 431.02 922.139 433.143 922.139 435.31C922.139 435.743 922.139 436.047 922.139 436.22C922.225 436.393 922.269 436.523 922.269 436.61C924.522 435.743 926.949 434.79 929.549 433.75C932.235 432.623 934.879 431.54 937.479 430.5C940.079 429.373 942.592 428.333 945.019 427.38C947.445 426.34 949.612 425.43 951.519 424.65ZM1005.32 413.47L999.474 421.27C999.388 421.183 999.084 420.967 998.564 420.62C998.044 420.273 997.351 419.927 996.484 419.58C995.704 419.233 994.751 418.93 993.624 418.67C992.584 418.323 991.501 418.15 990.374 418.15C988.901 418.15 987.428 418.497 985.954 419.19C984.568 419.883 983.874 421.183 983.874 423.09C983.874 424.737 984.438 426.08 985.564 427.12C986.778 428.16 988.251 429.113 989.984 429.98C991.718 430.76 993.581 431.583 995.574 432.45C997.654 433.317 999.561 434.4 1001.29 435.7C1003.03 436.913 1004.46 438.473 1005.58 440.38C1006.8 442.2 1007.4 444.54 1007.4 447.4C1007.4 452.253 1005.71 456.283 1002.33 459.49C999.041 462.61 994.491 464.17 988.684 464.17C985.304 464.17 981.968 463.607 978.674 462.48C975.468 461.267 972.868 459.533 970.874 457.28C971.481 456.673 972.131 455.893 972.824 454.94C973.604 453.987 974.341 453.077 975.034 452.21C975.814 451.343 976.421 450.65 976.854 450.13C977.374 449.523 977.678 449.22 977.764 449.22C977.764 449.307 978.068 449.567 978.674 450C979.368 450.433 980.234 450.91 981.274 451.43C982.314 451.863 983.484 452.297 984.784 452.73C986.084 453.077 987.384 453.25 988.684 453.25C990.764 453.25 992.541 452.73 994.014 451.69C995.488 450.65 996.224 449.263 996.224 447.53C996.224 445.97 995.618 444.757 994.404 443.89C993.278 442.937 991.848 442.07 990.114 441.29C988.381 440.51 986.474 439.73 984.394 438.95C982.314 438.083 980.408 437 978.674 435.7C976.941 434.4 975.468 432.797 974.254 430.89C973.128 428.897 972.564 426.34 972.564 423.22C972.564 420.273 973.084 417.803 974.124 415.81C975.251 413.817 976.638 412.213 978.284 411C980.018 409.7 981.924 408.79 984.004 408.27C986.084 407.663 988.078 407.36 989.984 407.36C992.498 407.36 995.184 407.88 998.044 408.92C1000.9 409.96 1003.33 411.477 1005.32 413.47Z"/><path fill="#000" d="M107 284.25H901.239V290.75H107V284.25Z"/><path fill="#000" d="M1017.62 313.27C1017.62 314.278 1016.46 315.085 1015 315.085C1013.33 315.236 1012.18 314.429 1012.18 313.27C1012.18 312.262 1013.33 311.456 1014.8 311.456C1016.31 311.304 1017.62 312.111 1017.62 313.27ZM1001.94 311.002C1001.59 312.01 1002.6 313.169 1004.11 313.472C1005.42 313.976 1006.93 313.472 1007.24 312.464C1007.54 311.456 1006.58 310.296 1005.07 309.843C1003.76 309.49 1002.3 309.994 1001.94 311.002ZM1024.22 310.145C1022.76 310.498 1021.75 311.456 1021.9 312.615C1022.05 313.623 1023.36 314.278 1024.88 313.925C1026.34 313.573 1027.35 312.615 1027.2 311.607C1027.04 310.649 1025.68 309.994 1024.22 310.145ZM1057.39 117C987.478 117 934 170.075 934 239.984C934 295.881 969.181 343.714 1019.43 360.548C1025.89 361.708 1028.15 357.726 1028.15 354.45C1028.15 351.325 1028 334.087 1028 323.502C1028 323.502 992.72 331.063 985.31 308.482C985.31 308.482 979.565 293.815 971.298 290.034C971.298 290.034 959.756 282.121 972.105 282.272C972.105 282.272 984.655 283.28 991.56 295.276C1002.6 314.732 1021.1 309.137 1028.3 305.811C1029.46 297.746 1032.74 292.151 1036.37 288.825C1008.19 285.7 979.766 281.617 979.766 233.129C979.766 219.268 983.597 212.313 991.661 203.442C990.351 200.165 986.067 186.657 992.972 169.218C1003.51 165.942 1027.75 182.827 1027.75 182.827C1037.83 180.004 1048.67 178.542 1059.4 178.542C1070.14 178.542 1080.98 180.004 1091.06 182.827C1091.06 182.827 1115.3 165.891 1125.83 169.218C1132.74 186.708 1128.46 200.165 1127.15 203.442C1135.21 212.363 1140.15 219.319 1140.15 233.129C1140.15 281.768 1110.46 285.649 1082.29 288.825C1086.92 292.806 1090.85 300.367 1090.85 312.212C1090.85 329.198 1090.7 350.216 1090.7 354.349C1090.7 357.625 1093.02 361.607 1099.42 360.448C1149.83 343.714 1184 295.881 1184 239.984C1184 170.075 1127.3 117 1057.39 117ZM982.992 290.841C982.337 291.345 982.488 292.504 983.345 293.462C984.151 294.268 985.31 294.621 985.966 293.966C986.621 293.462 986.47 292.302 985.613 291.345C984.806 290.538 983.647 290.186 982.992 290.841ZM977.548 286.758C977.196 287.413 977.7 288.22 978.708 288.724C979.514 289.228 980.522 289.077 980.875 288.371C981.228 287.716 980.724 286.909 979.716 286.405C978.708 286.103 977.901 286.254 977.548 286.758ZM993.879 304.702C993.073 305.357 993.375 306.869 994.534 307.827C995.694 308.986 997.155 309.137 997.81 308.331C998.466 307.675 998.163 306.163 997.155 305.206C996.046 304.046 994.534 303.895 993.879 304.702ZM988.133 297.292C987.327 297.796 987.327 299.107 988.133 300.266C988.94 301.425 990.3 301.929 990.956 301.425C991.762 300.77 991.762 299.46 990.956 298.3C990.25 297.141 988.94 296.637 988.133 297.292Z"/><path fill="#000" d="M987.388 514.62C987.388 513.516 987.592 512.484 988 511.524C988.432 510.54 989.008 509.688 989.728 508.968C990.448 508.224 991.276 507.636 992.212 507.204C993.172 506.772 994.192 506.556 995.272 506.556C995.992 506.556 996.652 506.652 997.252 506.844C997.852 507.012 998.368 507.228 998.8 507.492C999.232 507.756 999.58 508.032 999.844 508.32C1000.11 508.608 1000.29 508.86 1000.38 509.076L1000.53 506.952H1003.48V519.12H1004.56C1004.87 519.12 1005.23 519.024 1005.64 518.832C1006.07 518.64 1006.48 518.316 1006.86 517.86C1007.25 517.38 1007.56 516.768 1007.8 516.024C1008.06 515.256 1008.2 514.308 1008.2 513.18C1008.2 511.788 1007.94 510.432 1007.44 509.112C1006.96 507.792 1006.22 506.616 1005.21 505.584C1004.22 504.552 1002.99 503.724 1001.5 503.1C1000.04 502.476 998.332 502.164 996.388 502.164C994.132 502.164 992.188 502.56 990.556 503.352C988.924 504.12 987.568 505.116 986.488 506.34C985.432 507.54 984.652 508.884 984.148 510.372C983.644 511.86 983.392 513.312 983.392 514.728C983.392 516.432 983.716 518.028 984.364 519.516C985.012 521.004 985.9 522.312 987.028 523.44C988.18 524.568 989.512 525.456 991.024 526.104C992.536 526.752 994.156 527.076 995.884 527.076C997.276 527.076 998.62 526.86 999.916 526.428C1001.21 525.996 1002.4 525.396 1003.48 524.628L1005.28 526.752C1004.01 527.832 1002.51 528.624 1000.78 529.128C999.052 529.656 997.36 529.92 995.704 529.92C993.616 529.92 991.636 529.512 989.764 528.696C987.916 527.904 986.296 526.812 984.904 525.42C983.536 524.052 982.444 522.444 981.628 520.596C980.812 518.724 980.404 516.732 980.404 514.62C980.404 512.724 980.752 510.864 981.448 509.04C982.144 507.192 983.164 505.548 984.508 504.108C985.876 502.644 987.556 501.468 989.548 500.58C991.564 499.692 993.88 499.248 996.496 499.248C998.896 499.248 1001.01 499.644 1002.83 500.436C1004.66 501.228 1006.19 502.272 1007.44 503.568C1008.69 504.864 1009.62 506.352 1010.25 508.032C1010.9 509.688 1011.22 511.392 1011.22 513.144C1011.22 514.536 1011.05 515.784 1010.72 516.888C1010.38 517.992 1009.91 518.928 1009.31 519.696C1008.71 520.44 1008 521.016 1007.19 521.424C1006.37 521.808 1005.5 522 1004.56 522H1000.38V520.092C1000.26 520.284 1000.07 520.512 999.808 520.776C999.544 521.04 999.196 521.292 998.764 521.532C998.356 521.748 997.864 521.94 997.288 522.108C996.712 522.276 996.052 522.36 995.308 522.36C994.156 522.36 993.088 522.156 992.104 521.748C991.144 521.316 990.316 520.752 989.62 520.056C988.924 519.336 988.372 518.508 987.964 517.572C987.58 516.636 987.388 515.652 987.388 514.62ZM990.484 514.44C990.484 515.136 990.604 515.784 990.844 516.384C991.108 516.984 991.456 517.5 991.888 517.932C992.32 518.364 992.836 518.712 993.436 518.976C994.036 519.216 994.696 519.336 995.416 519.336C996.136 519.336 996.796 519.216 997.396 518.976C998.02 518.712 998.548 518.364 998.98 517.932C999.436 517.476 999.784 516.96 1000.02 516.384C1000.26 515.784 1000.38 515.136 1000.38 514.44C1000.38 513.744 1000.26 513.108 1000.02 512.532C999.784 511.932 999.436 511.416 998.98 510.984C998.548 510.552 998.02 510.216 997.396 509.976C996.796 509.712 996.136 509.58 995.416 509.58C994.696 509.58 994.036 509.712 993.436 509.976C992.836 510.216 992.32 510.552 991.888 510.984C991.456 511.416 991.108 511.932 990.844 512.532C990.604 513.108 990.484 513.744 990.484 514.44ZM1027.94 514.44C1027.94 513.744 1027.83 513.108 1027.61 512.532C1027.4 511.932 1027.08 511.416 1026.68 510.984C1026.27 510.552 1025.78 510.216 1025.2 509.976C1024.62 509.712 1023.98 509.58 1023.26 509.58C1022.54 509.58 1021.86 509.712 1021.24 509.976C1020.64 510.216 1020.12 510.552 1019.69 510.984C1019.26 511.416 1018.91 511.932 1018.65 512.532C1018.41 513.108 1018.29 513.744 1018.29 514.44C1018.29 515.136 1018.41 515.784 1018.65 516.384C1018.91 516.984 1019.26 517.5 1019.69 517.932C1020.12 518.364 1020.64 518.712 1021.24 518.976C1021.86 519.216 1022.54 519.336 1023.26 519.336C1023.98 519.336 1024.62 519.216 1025.2 518.976C1025.78 518.712 1026.27 518.364 1026.68 517.932C1027.08 517.476 1027.4 516.96 1027.61 516.384C1027.83 515.784 1027.94 515.136 1027.94 514.44ZM1031.28 514.512C1031.28 515.64 1031.09 516.684 1030.71 517.644C1030.32 518.604 1029.78 519.432 1029.09 520.128C1028.39 520.824 1027.55 521.376 1026.57 521.784C1025.61 522.168 1024.55 522.36 1023.4 522.36C1022.8 522.36 1022.22 522.288 1021.67 522.144C1021.14 522.024 1020.65 521.856 1020.2 521.64C1019.74 521.4 1019.34 521.148 1019.01 520.884C1018.67 520.596 1018.42 520.308 1018.25 520.02C1018.25 520.14 1018.25 520.272 1018.25 520.416C1018.28 520.536 1018.29 520.656 1018.29 520.776V529.236H1015.19V506.952H1018.18C1018.18 507.24 1018.19 507.6 1018.22 508.032C1018.26 508.44 1018.29 508.812 1018.29 509.148C1018.48 508.86 1018.73 508.572 1019.04 508.284C1019.38 507.972 1019.76 507.696 1020.2 507.456C1020.65 507.192 1021.16 506.976 1021.71 506.808C1022.26 506.64 1022.87 506.556 1023.54 506.556C1024.7 506.556 1025.74 506.748 1026.68 507.132C1027.64 507.492 1028.45 508.02 1029.12 508.716C1029.82 509.388 1030.35 510.216 1030.71 511.2C1031.09 512.184 1031.28 513.288 1031.28 514.512ZM1047.38 520.236C1046.66 520.884 1045.78 521.4 1044.75 521.784C1043.72 522.168 1042.66 522.36 1041.58 522.36C1040.48 522.36 1039.43 522.156 1038.45 521.748C1037.49 521.316 1036.65 520.752 1035.93 520.056C1035.21 519.336 1034.63 518.496 1034.2 517.536C1033.79 516.576 1033.59 515.556 1033.59 514.476C1033.59 513.396 1033.79 512.376 1034.2 511.416C1034.63 510.456 1035.21 509.616 1035.93 508.896C1036.65 508.176 1037.48 507.612 1038.41 507.204C1039.37 506.772 1040.39 506.556 1041.47 506.556C1043.18 506.556 1044.65 507.072 1045.9 508.104C1047.17 509.112 1048.08 510.444 1048.64 512.1C1047.89 512.364 1047.04 512.688 1046.08 513.072C1045.12 513.456 1044.12 513.864 1043.09 514.296C1042.06 514.704 1041.03 515.112 1040 515.52C1038.96 515.928 1038 516.3 1037.12 516.636C1037.52 517.452 1038.11 518.112 1038.88 518.616C1039.67 519.096 1040.55 519.336 1041.51 519.336C1042.16 519.336 1042.8 519.216 1043.45 518.976C1044.12 518.736 1044.66 518.412 1045.07 518.004L1047.38 520.236ZM1044.78 511.38C1044.5 510.78 1044.04 510.336 1043.42 510.048C1042.79 509.736 1042.16 509.58 1041.51 509.58C1040.81 509.58 1040.16 509.712 1039.56 509.976C1038.99 510.24 1038.48 510.6 1038.05 511.056C1037.62 511.488 1037.27 511.992 1037.01 512.568C1036.77 513.144 1036.65 513.732 1036.65 514.332C1036.65 514.452 1036.65 514.536 1036.65 514.584C1036.67 514.632 1036.68 514.668 1036.68 514.692C1037.31 514.452 1037.98 514.188 1038.7 513.9C1039.44 513.588 1040.18 513.288 1040.9 513C1041.62 512.688 1042.31 512.4 1042.98 512.136C1043.66 511.848 1044.26 511.596 1044.78 511.38ZM1050.25 514.62C1050.25 513.516 1050.46 512.484 1050.86 511.524C1051.3 510.54 1051.87 509.688 1052.59 508.968C1053.31 508.224 1054.14 507.636 1055.08 507.204C1056.04 506.772 1057.06 506.556 1058.14 506.556C1058.86 506.556 1059.52 506.652 1060.12 506.844C1060.72 507.012 1061.23 507.228 1061.66 507.492C1062.1 507.756 1062.44 508.032 1062.71 508.32C1062.97 508.608 1063.15 508.86 1063.25 509.076L1063.39 506.952H1066.34V522H1063.25V520.092C1063.13 520.284 1062.94 520.512 1062.67 520.776C1062.41 521.04 1062.06 521.292 1061.63 521.532C1061.22 521.748 1060.73 521.94 1060.15 522.108C1059.58 522.276 1058.92 522.36 1058.17 522.36C1057.02 522.36 1055.95 522.156 1054.97 521.748C1054.01 521.316 1053.18 520.752 1052.48 520.056C1051.79 519.336 1051.24 518.508 1050.83 517.572C1050.44 516.636 1050.25 515.652 1050.25 514.62ZM1053.35 514.44C1053.35 515.136 1053.47 515.784 1053.71 516.384C1053.97 516.984 1054.32 517.5 1054.75 517.932C1055.18 518.364 1055.7 518.712 1056.3 518.976C1056.9 519.216 1057.56 519.336 1058.28 519.336C1059 519.336 1059.66 519.216 1060.26 518.976C1060.88 518.712 1061.41 518.364 1061.84 517.932C1062.3 517.476 1062.65 516.96 1062.89 516.384C1063.13 515.784 1063.25 515.136 1063.25 514.44C1063.25 513.744 1063.13 513.108 1062.89 512.532C1062.65 511.932 1062.3 511.416 1061.84 510.984C1061.41 510.552 1060.88 510.216 1060.26 509.976C1059.66 509.712 1059 509.58 1058.28 509.58C1057.56 509.58 1056.9 509.712 1056.3 509.976C1055.7 510.216 1055.18 510.552 1054.75 510.984C1054.32 511.416 1053.97 511.932 1053.71 512.532C1053.47 513.108 1053.35 513.744 1053.35 514.44ZM1080.75 518.292C1081.08 518.7 1081.4 519.096 1081.68 519.48C1082 519.84 1082.31 520.224 1082.62 520.632C1081.95 521.16 1081.19 521.58 1080.35 521.892C1079.51 522.204 1078.6 522.36 1077.62 522.36C1076.51 522.36 1075.47 522.156 1074.48 521.748C1073.52 521.316 1072.68 520.74 1071.96 520.02C1071.24 519.3 1070.67 518.46 1070.24 517.5C1069.83 516.54 1069.62 515.52 1069.62 514.44C1069.62 513.36 1069.83 512.34 1070.24 511.38C1070.67 510.42 1071.24 509.592 1071.96 508.896C1072.68 508.176 1073.52 507.612 1074.48 507.204C1075.47 506.772 1076.51 506.556 1077.62 506.556C1078.62 506.556 1079.55 506.712 1080.39 507.024C1081.25 507.336 1082.03 507.756 1082.73 508.284L1080.75 510.624C1080.34 510.288 1079.87 510.036 1079.34 509.868C1078.82 509.676 1078.24 509.58 1077.62 509.58C1076.9 509.58 1076.24 509.712 1075.64 509.976C1075.04 510.216 1074.51 510.552 1074.05 510.984C1073.62 511.416 1073.28 511.932 1073.04 512.532C1072.8 513.108 1072.68 513.744 1072.68 514.44C1072.68 515.136 1072.8 515.784 1073.04 516.384C1073.28 516.96 1073.62 517.476 1074.05 517.932C1074.51 518.364 1075.04 518.712 1075.64 518.976C1076.24 519.216 1076.9 519.336 1077.62 519.336C1078.24 519.336 1078.82 519.252 1079.34 519.084C1079.87 518.892 1080.34 518.628 1080.75 518.292ZM1097.86 520.236C1097.14 520.884 1096.27 521.4 1095.23 521.784C1094.2 522.168 1093.15 522.36 1092.07 522.36C1090.96 522.36 1089.92 522.156 1088.93 521.748C1087.97 521.316 1087.13 520.752 1086.41 520.056C1085.69 519.336 1085.12 518.496 1084.69 517.536C1084.28 516.576 1084.07 515.556 1084.07 514.476C1084.07 513.396 1084.28 512.376 1084.69 511.416C1085.12 510.456 1085.69 509.616 1086.41 508.896C1087.13 508.176 1087.96 507.612 1088.9 507.204C1089.86 506.772 1090.88 506.556 1091.96 506.556C1093.66 506.556 1095.14 507.072 1096.39 508.104C1097.66 509.112 1098.57 510.444 1099.12 512.1C1098.38 512.364 1097.53 512.688 1096.57 513.072C1095.61 513.456 1094.61 513.864 1093.58 514.296C1092.55 514.704 1091.51 515.112 1090.48 515.52C1089.45 515.928 1088.49 516.3 1087.6 516.636C1088.01 517.452 1088.6 518.112 1089.37 518.616C1090.16 519.096 1091.03 519.336 1091.99 519.336C1092.64 519.336 1093.29 519.216 1093.94 518.976C1094.61 518.736 1095.15 518.412 1095.56 518.004L1097.86 520.236ZM1095.27 511.38C1094.98 510.78 1094.53 510.336 1093.9 510.048C1093.28 509.736 1092.64 509.58 1091.99 509.58C1091.3 509.58 1090.65 509.712 1090.05 509.976C1089.47 510.24 1088.97 510.6 1088.54 511.056C1088.11 511.488 1087.76 511.992 1087.49 512.568C1087.25 513.144 1087.13 513.732 1087.13 514.332C1087.13 514.452 1087.13 514.536 1087.13 514.584C1087.16 514.632 1087.17 514.668 1087.17 514.692C1087.79 514.452 1088.47 514.188 1089.19 513.9C1089.93 513.588 1090.66 513.288 1091.38 513C1092.1 512.688 1092.8 512.4 1093.47 512.136C1094.14 511.848 1094.74 511.596 1095.27 511.38ZM1101.39 501.192C1101.39 500.616 1101.59 500.136 1102 499.752C1102.43 499.368 1102.89 499.176 1103.37 499.176C1103.85 499.176 1104.29 499.368 1104.7 499.752C1105.11 500.136 1105.31 500.616 1105.31 501.192C1105.31 501.768 1105.11 502.248 1104.7 502.632C1104.29 502.992 1103.85 503.172 1103.37 503.172C1102.89 503.172 1102.43 502.992 1102 502.632C1101.59 502.248 1101.39 501.768 1101.39 501.192ZM1104.84 522H1101.78V506.952H1104.84V522ZM1117.44 510.516C1116.77 510.516 1116.12 510.612 1115.5 510.804C1114.88 510.972 1114.31 511.236 1113.81 511.596C1113.33 511.956 1112.94 512.412 1112.66 512.964C1112.37 513.492 1112.22 514.104 1112.22 514.8V522H1109.16V506.952H1111.86C1111.91 507.696 1111.95 508.38 1111.97 509.004C1112.02 509.604 1112.07 510.204 1112.12 510.804C1112.43 510.156 1112.84 509.568 1113.34 509.04C1113.84 508.512 1114.38 508.068 1114.96 507.708C1115.54 507.348 1116.1 507.072 1116.65 506.88C1117.2 506.664 1117.7 506.556 1118.13 506.556L1117.44 510.516ZM1119.95 501.192C1119.95 500.616 1120.15 500.136 1120.56 499.752C1120.99 499.368 1121.45 499.176 1121.93 499.176C1122.41 499.176 1122.85 499.368 1123.26 499.752C1123.67 500.136 1123.87 500.616 1123.87 501.192C1123.87 501.768 1123.67 502.248 1123.26 502.632C1122.85 502.992 1122.41 503.172 1121.93 503.172C1121.45 503.172 1120.99 502.992 1120.56 502.632C1120.15 502.248 1119.95 501.768 1119.95 501.192ZM1123.4 522H1120.34V506.952H1123.4V522ZM1136.11 508.284L1134.49 510.444C1134.47 510.42 1134.39 510.36 1134.24 510.264C1134.1 510.168 1133.91 510.072 1133.67 509.976C1133.45 509.88 1133.19 509.796 1132.87 509.724C1132.59 509.628 1132.29 509.58 1131.97 509.58C1131.57 509.58 1131.16 509.676 1130.75 509.868C1130.37 510.06 1130.17 510.42 1130.17 510.948C1130.17 511.404 1130.33 511.776 1130.64 512.064C1130.98 512.352 1131.39 512.616 1131.87 512.856C1132.35 513.072 1132.86 513.3 1133.41 513.54C1133.99 513.78 1134.52 514.08 1135 514.44C1135.48 514.776 1135.87 515.208 1136.19 515.736C1136.52 516.24 1136.69 516.888 1136.69 517.68C1136.69 519.024 1136.22 520.14 1135.29 521.028C1134.37 521.892 1133.11 522.324 1131.51 522.324C1130.57 522.324 1129.65 522.168 1128.73 521.856C1127.85 521.52 1127.13 521.04 1126.57 520.416C1126.74 520.248 1126.92 520.032 1127.11 519.768C1127.33 519.504 1127.53 519.252 1127.73 519.012C1127.94 518.772 1128.11 518.58 1128.23 518.436C1128.37 518.268 1128.46 518.184 1128.48 518.184C1128.48 518.208 1128.57 518.28 1128.73 518.4C1128.93 518.52 1129.17 518.652 1129.45 518.796C1129.74 518.916 1130.07 519.036 1130.43 519.156C1130.79 519.252 1131.15 519.3 1131.51 519.3C1132.08 519.3 1132.57 519.156 1132.98 518.868C1133.39 518.58 1133.59 518.196 1133.59 517.716C1133.59 517.284 1133.43 516.948 1133.09 516.708C1132.78 516.444 1132.38 516.204 1131.9 515.988C1131.42 515.772 1130.89 515.556 1130.32 515.34C1129.74 515.1 1129.21 514.8 1128.73 514.44C1128.25 514.08 1127.85 513.636 1127.51 513.108C1127.2 512.556 1127.04 511.848 1127.04 510.984C1127.04 510.168 1127.19 509.484 1127.47 508.932C1127.79 508.38 1128.17 507.936 1128.63 507.6C1129.11 507.24 1129.63 506.988 1130.21 506.844C1130.79 506.676 1131.34 506.592 1131.87 506.592C1132.56 506.592 1133.31 506.736 1134.1 507.024C1134.89 507.312 1135.56 507.732 1136.11 508.284Z"/><defs><filter id="filter0_d" width="1288" height="648" x="0" y="0" color-interpolation-filters="sRGB" filterUnits="userSpaceOnUse"><feFlood flood-opacity="0" result="BackgroundImageFix"/><feColorMatrix in="SourceAlpha" type="matrix" values="0 0 0 0 0 0 0 0 0 0 0 0 0 0 0 0 0 0 127 0"/><feOffset dy="4"/><feGaussianBlur stdDeviation="2"/><feColorMatrix type="matrix" values="0 0 0 0 0 0 0 0 0 0 0 0 0 0 0 0 0 0 0.25 0"/><feBlend in2="BackgroundImageFix" mode="normal" result="effect1_dropShadow"/><feBlend in="SourceGraphic" in2="effect1_dropShadow" mode="normal" result="shape"/></filter></defs></svg>