<svg xmlns="http://www.w3.org/2000/svg" width="1288" height="648" fill="none" viewBox="0 0 1288 648"><rect width="1288" height="648" fill="#E5E5E5"/><g filter="url(#filter0_d)"><rect width="1280" height="640" x="4" fill="#F7F176"/></g><path fill="#000" d="M185 170.3V200.7C182.2 202.3 178.867 203.567 175 204.5C171.133 205.367 167.2 205.8 163.2 205.8C157.467 205.8 152.3 204.9 147.7 203.1C143.167 201.3 139.267 198.833 136 195.7C132.733 192.5 130.233 188.733 128.5 184.4C126.767 180.067 125.9 175.333 125.9 170.2C125.9 164.533 126.9 159.367 128.9 154.7C130.967 149.967 133.733 145.9 137.2 142.5C140.733 139.1 144.767 136.467 149.3 134.6C153.9 132.667 158.767 131.7 163.9 131.7C167.367 131.7 171 132.167 174.8 133.1C178.6 133.967 181.9 135.233 184.7 136.9L179.4 145.8C178.4 145.2 177.233 144.667 175.9 144.2C174.633 143.733 173.3 143.333 171.9 143C170.5 142.667 169.1 142.433 167.7 142.3C166.3 142.1 164.967 142 163.7 142C160.167 142 156.767 142.7 153.5 144.1C150.233 145.5 147.367 147.433 144.9 149.9C142.433 152.367 140.467 155.267 139 158.6C137.533 161.933 136.8 165.533 136.8 169.4C136.8 172.933 137.433 176.267 138.7 179.4C140.033 182.533 141.867 185.3 144.2 187.7C146.533 190.1 149.333 192 152.6 193.4C155.867 194.8 159.467 195.5 163.4 195.5C164.933 195.5 166.733 195.367 168.8 195.1C170.933 194.767 172.967 194.233 174.9 193.5V179.7H160.8V170.3H185ZM194.283 147.2C194.283 145.6 194.849 144.267 195.983 143.2C197.183 142.133 198.449 141.6 199.783 141.6C201.116 141.6 202.349 142.133 203.483 143.2C204.616 144.267 205.183 145.6 205.183 147.2C205.183 148.8 204.616 150.133 203.483 151.2C202.349 152.2 201.116 152.7 199.783 152.7C198.449 152.7 197.183 152.2 195.983 151.2C194.849 150.133 194.283 148.8 194.283 147.2ZM203.883 205H195.383V163.2H203.883V205ZM219.491 144.8H227.991V163.3H239.191V170.9H227.991V205H219.491V170.9H211.991V163.3H219.491V144.8ZM247.306 205V132.5H258.206V163.3H294.506V132.5H305.506C305.506 133.367 305.506 135 305.506 137.4C305.506 139.733 305.506 142.533 305.506 145.8C305.506 149.067 305.506 152.7 305.506 156.7C305.506 160.633 305.473 164.667 305.406 168.8C305.406 172.867 305.406 176.9 305.406 180.9C305.406 184.833 305.406 188.433 305.406 191.7C305.406 194.967 305.406 197.8 305.406 200.2C305.406 202.533 305.406 204.133 305.406 205H294.506V173.7H258.206V205H247.306ZM358.404 205.9H351.204L350.204 194.3C348.671 197.7 346.504 200.5 343.704 202.7C340.971 204.9 337.471 206 333.204 206C328.937 206 325.537 204.867 323.004 202.6C320.537 200.267 319.237 197.233 319.104 193.5V163.2H327.604V189.7C327.737 191.767 328.471 193.533 329.804 195C331.204 196.467 333.337 197.3 336.204 197.5C338.204 197.5 340.037 197.167 341.704 196.5C343.371 195.767 344.804 194.8 346.004 193.6C347.204 192.4 348.137 190.967 348.804 189.3C349.471 187.633 349.804 185.8 349.804 183.8V163.2H358.404V205.9ZM415.083 184.2C415.083 187.333 414.549 190.233 413.483 192.9C412.416 195.567 410.916 197.867 408.983 199.8C407.049 201.733 404.716 203.267 401.983 204.4C399.316 205.467 396.383 206 393.183 206C391.516 206 389.916 205.8 388.383 205.4C386.916 205.067 385.549 204.6 384.283 204C383.016 203.333 381.916 202.633 380.983 201.9C380.049 201.1 379.349 200.3 378.883 199.5C378.883 199.833 378.883 200.2 378.883 200.6C378.949 200.933 378.983 201.267 378.983 201.6V205H370.383V127.3H378.983V169.3C379.516 168.5 380.216 167.7 381.083 166.9C382.016 166.033 383.083 165.267 384.283 164.6C385.549 163.867 386.949 163.267 388.483 162.8C390.016 162.333 391.716 162.1 393.583 162.1C396.783 162.1 399.683 162.633 402.283 163.7C404.949 164.7 407.216 166.167 409.083 168.1C411.016 169.967 412.483 172.267 413.483 175C414.549 177.733 415.083 180.8 415.083 184.2ZM405.783 184C405.783 182.067 405.483 180.3 404.883 178.7C404.283 177.033 403.416 175.6 402.283 174.4C401.149 173.2 399.783 172.267 398.183 171.6C396.583 170.867 394.783 170.5 392.783 170.5C390.783 170.5 388.916 170.867 387.183 171.6C385.516 172.267 384.083 173.2 382.883 174.4C381.683 175.6 380.716 177.033 379.983 178.7C379.316 180.3 378.983 182.067 378.983 184C378.983 185.933 379.316 187.733 379.983 189.4C380.716 191.067 381.683 192.5 382.883 193.7C384.083 194.9 385.516 195.867 387.183 196.6C388.916 197.267 390.783 197.6 392.783 197.6C394.783 197.6 396.583 197.267 398.183 196.6C399.783 195.867 401.149 194.9 402.283 193.7C403.416 192.433 404.283 191 404.883 189.4C405.483 187.733 405.783 185.933 405.783 184ZM495.234 205C494.9 204.267 494.434 203.2 493.834 201.8C493.234 200.4 492.534 198.8 491.734 197C491 195.133 490.167 193.133 489.234 191C488.367 188.8 487.467 186.533 486.534 184.2H460.934L452.334 205H441.534L473.834 129.1C474.234 130.033 474.934 131.733 475.934 134.2C477 136.667 478.234 139.633 479.634 143.1C481.1 146.5 482.7 150.3 484.434 154.5C486.234 158.633 488.034 162.833 489.834 167.1C491.7 171.367 493.5 175.567 495.234 179.7C497.034 183.833 498.667 187.633 500.134 191.1C501.6 194.567 502.834 197.533 503.834 200C504.9 202.4 505.634 204.067 506.034 205H495.234ZM464.734 175H482.834C481.9 172.8 481 170.7 480.134 168.7C479.334 166.633 478.567 164.767 477.834 163.1C477.167 161.367 476.567 159.867 476.034 158.6C475.5 157.333 475.1 156.333 474.834 155.6C474.767 155.467 474.6 155 474.334 154.2C474.134 153.4 473.967 152.667 473.834 152C473.7 152.667 473.5 153.4 473.234 154.2C472.967 155 472.8 155.467 472.734 155.6L464.734 175ZM539.105 194.7C540.039 195.833 540.905 196.933 541.705 198C542.572 199 543.439 200.067 544.305 201.2C542.439 202.667 540.339 203.833 538.005 204.7C535.672 205.567 533.139 206 530.405 206C527.339 206 524.439 205.433 521.705 204.3C519.039 203.1 516.705 201.5 514.705 199.5C512.705 197.5 511.105 195.167 509.905 192.5C508.772 189.833 508.205 187 508.205 184C508.205 181 508.772 178.167 509.905 175.5C511.105 172.833 512.705 170.533 514.705 168.6C516.705 166.6 519.039 165.033 521.705 163.9C524.439 162.7 527.339 162.1 530.405 162.1C533.205 162.1 535.772 162.533 538.105 163.4C540.505 164.267 542.672 165.433 544.605 166.9L539.105 173.4C537.972 172.467 536.672 171.767 535.205 171.3C533.739 170.767 532.139 170.5 530.405 170.5C528.405 170.5 526.572 170.867 524.905 171.6C523.239 172.267 521.772 173.2 520.505 174.4C519.305 175.6 518.372 177.033 517.705 178.7C517.039 180.3 516.705 182.067 516.705 184C516.705 185.933 517.039 187.733 517.705 189.4C518.372 191 519.305 192.433 520.505 193.7C521.772 194.9 523.239 195.867 524.905 196.6C526.572 197.267 528.405 197.6 530.405 197.6C532.139 197.6 533.739 197.367 535.205 196.9C536.672 196.367 537.972 195.633 539.105 194.7ZM556.307 144.8H564.807V163.3H576.007V170.9H564.807V205H556.307V170.9H548.807V163.3H556.307V144.8ZM581.978 147.2C581.978 145.6 582.545 144.267 583.678 143.2C584.878 142.133 586.145 141.6 587.478 141.6C588.811 141.6 590.045 142.133 591.178 143.2C592.311 144.267 592.878 145.6 592.878 147.2C592.878 148.8 592.311 150.133 591.178 151.2C590.045 152.2 588.811 152.7 587.478 152.7C586.145 152.7 584.878 152.2 583.678 151.2C582.545 150.133 581.978 148.8 581.978 147.2ZM591.578 205H583.078V163.2H591.578V205ZM600.686 184C600.686 181 601.253 178.167 602.386 175.5C603.586 172.833 605.186 170.533 607.186 168.6C609.186 166.6 611.519 165.033 614.186 163.9C616.919 162.7 619.853 162.1 622.986 162.1C626.119 162.1 629.019 162.7 631.686 163.9C634.419 165.033 636.753 166.6 638.686 168.6C640.686 170.533 642.219 172.833 643.286 175.5C644.419 178.167 644.986 181 644.986 184C644.986 187 644.419 189.833 643.286 192.5C642.219 195.167 640.686 197.5 638.686 199.5C636.753 201.5 634.419 203.1 631.686 204.3C629.019 205.433 626.086 206 622.886 206C619.819 206 616.919 205.467 614.186 204.4C611.519 203.333 609.186 201.833 607.186 199.9C605.186 197.967 603.586 195.667 602.386 193C601.253 190.267 600.686 187.267 600.686 184ZM609.186 184.1C609.186 185.967 609.519 187.733 610.186 189.4C610.919 191 611.886 192.433 613.086 193.7C614.353 194.9 615.786 195.867 617.386 196.6C619.053 197.267 620.819 197.6 622.686 197.6C624.553 197.6 626.319 197.267 627.986 196.6C629.653 195.867 631.086 194.9 632.286 193.7C633.553 192.433 634.553 191 635.286 189.4C636.019 187.733 636.386 185.967 636.386 184.1C636.386 182.233 636.019 180.467 635.286 178.8C634.553 177.133 633.553 175.7 632.286 174.5C631.086 173.233 629.653 172.267 627.986 171.6C626.319 170.867 624.553 170.5 622.686 170.5C620.819 170.5 619.053 170.867 617.386 171.6C615.786 172.267 614.353 173.233 613.086 174.5C611.886 175.7 610.919 177.133 610.186 178.8C609.519 180.467 609.186 182.233 609.186 184.1ZM654.074 163.2H661.574C661.708 165.267 661.808 167.167 661.874 168.9C662.008 170.567 662.141 172.233 662.274 173.9C663.808 170.3 665.974 167.433 668.774 165.3C671.641 163.167 675.141 162.1 679.274 162.1C683.474 162.1 686.841 163.267 689.374 165.6C691.908 167.933 693.241 170.933 693.374 174.6V205H684.774V178.5C684.641 176.367 683.908 174.567 682.574 173.1C681.241 171.567 679.141 170.733 676.274 170.6C674.274 170.6 672.441 170.967 670.774 171.7C669.108 172.367 667.674 173.3 666.474 174.5C665.274 175.7 664.308 177.133 663.574 178.8C662.908 180.467 662.574 182.3 662.574 184.3V205H654.074V163.2ZM728.253 166.9L723.753 172.9C723.686 172.833 723.453 172.667 723.053 172.4C722.653 172.133 722.12 171.867 721.453 171.6C720.853 171.333 720.12 171.1 719.253 170.9C718.453 170.633 717.62 170.5 716.753 170.5C715.62 170.5 714.486 170.767 713.353 171.3C712.286 171.833 711.753 172.833 711.753 174.3C711.753 175.567 712.186 176.6 713.053 177.4C713.986 178.2 715.12 178.933 716.453 179.6C717.786 180.2 719.22 180.833 720.753 181.5C722.353 182.167 723.82 183 725.153 184C726.486 184.933 727.586 186.133 728.453 187.6C729.386 189 729.853 190.8 729.853 193C729.853 196.733 728.553 199.833 725.953 202.3C723.42 204.7 719.92 205.9 715.453 205.9C712.853 205.9 710.286 205.467 707.753 204.6C705.286 203.667 703.286 202.333 701.753 200.6C702.22 200.133 702.72 199.533 703.253 198.8C703.853 198.067 704.42 197.367 704.953 196.7C705.553 196.033 706.02 195.5 706.353 195.1C706.753 194.633 706.986 194.4 707.053 194.4C707.053 194.467 707.286 194.667 707.753 195C708.286 195.333 708.953 195.7 709.753 196.1C710.553 196.433 711.453 196.767 712.453 197.1C713.453 197.367 714.453 197.5 715.453 197.5C717.053 197.5 718.42 197.1 719.553 196.3C720.686 195.5 721.253 194.433 721.253 193.1C721.253 191.9 720.786 190.967 719.853 190.3C718.986 189.567 717.886 188.9 716.553 188.3C715.22 187.7 713.753 187.1 712.153 186.5C710.553 185.833 709.086 185 707.753 184C706.42 183 705.286 181.767 704.353 180.3C703.486 178.767 703.053 176.8 703.053 174.4C703.053 172.133 703.453 170.233 704.253 168.7C705.12 167.167 706.186 165.933 707.453 165C708.786 164 710.253 163.3 711.853 162.9C713.453 162.433 714.986 162.2 716.453 162.2C718.386 162.2 720.453 162.6 722.653 163.4C724.853 164.2 726.72 165.367 728.253 166.9ZM124.4 321.5V313.1H131.5V303.4C131.5 294.667 133.533 288.2 137.6 284C141.733 279.733 147.567 277.5 155.1 277.3V285.5C149.9 285.767 146.1 287.433 143.7 290.5C141.3 293.567 140.1 297.933 140.1 303.6V313.1H153.3V321.5H140.1V355H131.5V321.5H124.4ZM156.448 334C156.448 331 157.014 328.167 158.148 325.5C159.348 322.833 160.948 320.533 162.948 318.6C164.948 316.6 167.281 315.033 169.948 313.9C172.681 312.7 175.614 312.1 178.748 312.1C181.881 312.1 184.781 312.7 187.448 313.9C190.181 315.033 192.514 316.6 194.448 318.6C196.448 320.533 197.981 322.833 199.048 325.5C200.181 328.167 200.748 331 200.748 334C200.748 337 200.181 339.833 199.048 342.5C197.981 345.167 196.448 347.5 194.448 349.5C192.514 351.5 190.181 353.1 187.448 354.3C184.781 355.433 181.848 356 178.648 356C175.581 356 172.681 355.467 169.948 354.4C167.281 353.333 164.948 351.833 162.948 349.9C160.948 347.967 159.348 345.667 158.148 343C157.014 340.267 156.448 337.267 156.448 334ZM164.948 334.1C164.948 335.967 165.281 337.733 165.948 339.4C166.681 341 167.648 342.433 168.848 343.7C170.114 344.9 171.548 345.867 173.148 346.6C174.814 347.267 176.581 347.6 178.448 347.6C180.314 347.6 182.081 347.267 183.748 346.6C185.414 345.867 186.848 344.9 188.048 343.7C189.314 342.433 190.314 341 191.048 339.4C191.781 337.733 192.148 335.967 192.148 334.1C192.148 332.233 191.781 330.467 191.048 328.8C190.314 327.133 189.314 325.7 188.048 324.5C186.848 323.233 185.414 322.267 183.748 321.6C182.081 320.867 180.314 320.5 178.448 320.5C176.581 320.5 174.814 320.867 173.148 321.6C171.548 322.267 170.114 323.233 168.848 324.5C167.648 325.7 166.681 327.133 165.948 328.8C165.281 330.467 164.948 332.233 164.948 334.1ZM232.836 323.1C230.969 323.1 229.169 323.367 227.436 323.9C225.703 324.367 224.136 325.1 222.736 326.1C221.403 327.1 220.336 328.367 219.536 329.9C218.736 331.367 218.336 333.067 218.336 335V355H209.836V313.2H217.336C217.469 315.267 217.569 317.167 217.636 318.9C217.769 320.567 217.903 322.233 218.036 323.9C218.903 322.1 220.036 320.467 221.436 319C222.836 317.533 224.336 316.3 225.936 315.3C227.536 314.3 229.103 313.533 230.636 313C232.169 312.4 233.536 312.1 234.736 312.1L232.836 323.1ZM320.938 320.3V350.7C318.138 352.3 314.804 353.567 310.938 354.5C307.071 355.367 303.138 355.8 299.138 355.8C293.404 355.8 288.238 354.9 283.637 353.1C279.104 351.3 275.204 348.833 271.938 345.7C268.671 342.5 266.171 338.733 264.438 334.4C262.704 330.067 261.838 325.333 261.838 320.2C261.838 314.533 262.838 309.367 264.838 304.7C266.904 299.967 269.671 295.9 273.138 292.5C276.671 289.1 280.704 286.467 285.238 284.6C289.838 282.667 294.704 281.7 299.838 281.7C303.304 281.7 306.938 282.167 310.737 283.1C314.538 283.967 317.838 285.233 320.638 286.9L315.338 295.8C314.338 295.2 313.171 294.667 311.838 294.2C310.571 293.733 309.238 293.333 307.838 293C306.438 292.667 305.038 292.433 303.638 292.3C302.238 292.1 300.904 292 299.638 292C296.104 292 292.704 292.7 289.438 294.1C286.171 295.5 283.304 297.433 280.838 299.9C278.371 302.367 276.404 305.267 274.938 308.6C273.471 311.933 272.738 315.533 272.738 319.4C272.738 322.933 273.371 326.267 274.638 329.4C275.971 332.533 277.804 335.3 280.138 337.7C282.471 340.1 285.271 342 288.538 343.4C291.804 344.8 295.404 345.5 299.338 345.5C300.871 345.5 302.671 345.367 304.738 345.1C306.871 344.767 308.904 344.233 310.838 343.5V329.7H296.738V320.3H320.938ZM330.22 297.2C330.22 295.6 330.787 294.267 331.92 293.2C333.12 292.133 334.387 291.6 335.72 291.6C337.054 291.6 338.287 292.133 339.42 293.2C340.554 294.267 341.12 295.6 341.12 297.2C341.12 298.8 340.554 300.133 339.42 301.2C338.287 302.2 337.054 302.7 335.72 302.7C334.387 302.7 333.12 302.2 331.92 301.2C330.787 300.133 330.22 298.8 330.22 297.2ZM339.82 355H331.32V313.2H339.82V355ZM355.428 294.8H363.928V313.3H375.128V320.9H363.928V355H355.428V320.9H347.928V313.3H355.428V294.8ZM383.244 355V282.5H394.144V313.3H430.444V282.5H441.444C441.444 283.367 441.444 285 441.444 287.4C441.444 289.733 441.444 292.533 441.444 295.8C441.444 299.067 441.444 302.7 441.444 306.7C441.444 310.633 441.41 314.667 441.344 318.8C441.344 322.867 441.344 326.9 441.344 330.9C441.344 334.833 441.344 338.433 441.344 341.7C441.344 344.967 441.344 347.8 441.344 350.2C441.344 352.533 441.344 354.133 441.344 355H430.444V323.7H394.144V355H383.244ZM494.341 355.9H487.141L486.141 344.3C484.608 347.7 482.441 350.5 479.641 352.7C476.908 354.9 473.408 356 469.141 356C464.875 356 461.475 354.867 458.941 352.6C456.475 350.267 455.175 347.233 455.041 343.5V313.2H463.541V339.7C463.675 341.767 464.408 343.533 465.741 345C467.141 346.467 469.275 347.3 472.141 347.5C474.141 347.5 475.975 347.167 477.641 346.5C479.308 345.767 480.741 344.8 481.941 343.6C483.141 342.4 484.075 340.967 484.741 339.3C485.408 337.633 485.741 335.8 485.741 333.8V313.2H494.341V355.9ZM551.02 334.2C551.02 337.333 550.487 340.233 549.42 342.9C548.354 345.567 546.854 347.867 544.92 349.8C542.987 351.733 540.654 353.267 537.92 354.4C535.254 355.467 532.32 356 529.12 356C527.454 356 525.854 355.8 524.32 355.4C522.854 355.067 521.487 354.6 520.22 354C518.954 353.333 517.854 352.633 516.92 351.9C515.987 351.1 515.287 350.3 514.82 349.5C514.82 349.833 514.82 350.2 514.82 350.6C514.887 350.933 514.92 351.267 514.92 351.6V355H506.32V277.3H514.92V319.3C515.454 318.5 516.154 317.7 517.02 316.9C517.954 316.033 519.02 315.267 520.22 314.6C521.487 313.867 522.887 313.267 524.42 312.8C525.954 312.333 527.654 312.1 529.52 312.1C532.72 312.1 535.62 312.633 538.22 313.7C540.887 314.7 543.154 316.167 545.02 318.1C546.954 319.967 548.42 322.267 549.42 325C550.487 327.733 551.02 330.8 551.02 334.2ZM541.72 334C541.72 332.067 541.42 330.3 540.82 328.7C540.22 327.033 539.354 325.6 538.22 324.4C537.087 323.2 535.72 322.267 534.12 321.6C532.52 320.867 530.72 320.5 528.72 320.5C526.72 320.5 524.854 320.867 523.12 321.6C521.454 322.267 520.02 323.2 518.82 324.4C517.62 325.6 516.654 327.033 515.92 328.7C515.254 330.3 514.92 332.067 514.92 334C514.92 335.933 515.254 337.733 515.92 339.4C516.654 341.067 517.62 342.5 518.82 343.7C520.02 344.9 521.454 345.867 523.12 346.6C524.854 347.267 526.72 347.6 528.72 347.6C530.72 347.6 532.52 347.267 534.12 346.6C535.72 345.867 537.087 344.9 538.22 343.7C539.354 342.433 540.22 341 540.82 339.4C541.42 337.733 541.72 335.933 541.72 334ZM597.271 318.8H607.171C609.838 318.8 612.071 318.333 613.871 317.4C615.671 316.467 617.071 315.333 618.071 314C619.138 312.667 619.871 311.233 620.271 309.7C620.738 308.167 620.971 306.8 620.971 305.6C620.971 304.333 620.738 302.967 620.271 301.5C619.871 299.967 619.138 298.567 618.071 297.3C617.004 295.967 615.571 294.867 613.771 294C612.038 293.133 609.871 292.7 607.271 292.7H597.271V318.8ZM586.271 355V282.5H606.071C609.871 282.5 613.338 283 616.471 284C619.671 285 622.404 286.5 624.671 288.5C627.004 290.433 628.804 292.833 630.071 295.7C631.338 298.5 631.971 301.733 631.971 305.4C631.971 308.267 631.538 311.133 630.671 314C629.804 316.8 628.404 319.333 626.471 321.6C624.538 323.8 622.004 325.6 618.871 327C615.738 328.4 611.938 329.1 607.471 329.1H597.271V355H586.271ZM632.815 334.5C632.815 331.433 633.382 328.567 634.515 325.9C635.715 323.167 637.315 320.8 639.315 318.8C641.315 316.733 643.615 315.1 646.215 313.9C648.882 312.7 651.715 312.1 654.715 312.1C656.715 312.1 658.548 312.367 660.215 312.9C661.882 313.367 663.315 313.967 664.515 314.7C665.715 315.433 666.682 316.2 667.415 317C668.148 317.8 668.648 318.5 668.915 319.1L669.315 313.2H677.515V355H668.915V349.7C668.582 350.233 668.048 350.867 667.315 351.6C666.582 352.333 665.615 353.033 664.415 353.7C663.282 354.3 661.915 354.833 660.315 355.3C658.715 355.767 656.882 356 654.815 356C651.615 356 648.648 355.433 645.915 354.3C643.248 353.1 640.948 351.533 639.015 349.6C637.082 347.6 635.548 345.3 634.415 342.7C633.348 340.1 632.815 337.367 632.815 334.5ZM641.415 334C641.415 335.933 641.748 337.733 642.415 339.4C643.148 341.067 644.115 342.5 645.315 343.7C646.515 344.9 647.948 345.867 649.615 346.6C651.282 347.267 653.115 347.6 655.115 347.6C657.115 347.6 658.948 347.267 660.615 346.6C662.348 345.867 663.815 344.9 665.015 343.7C666.282 342.433 667.248 341 667.915 339.4C668.582 337.733 668.915 335.933 668.915 334C668.915 332.067 668.582 330.3 667.915 328.7C667.248 327.033 666.282 325.6 665.015 324.4C663.815 323.2 662.348 322.267 660.615 321.6C658.948 320.867 657.115 320.5 655.115 320.5C653.115 320.5 651.282 320.867 649.615 321.6C647.948 322.267 646.515 323.2 645.315 324.4C644.115 325.6 643.148 327.033 642.415 328.7C641.748 330.3 641.415 332.067 641.415 334ZM686.723 334.2C686.723 331.067 687.29 328.167 688.423 325.5C689.557 322.767 691.09 320.433 693.023 318.5C694.957 316.5 697.223 314.933 699.823 313.8C702.423 312.667 705.19 312.1 708.123 312.1C710.39 312.1 712.39 312.4 714.123 313C715.923 313.6 717.423 314.3 718.623 315.1C719.823 315.9 720.757 316.7 721.423 317.5C722.157 318.233 722.623 318.767 722.823 319.1C722.823 318.167 722.89 317.2 723.023 316.2C723.157 315.133 723.223 314.133 723.223 313.2H731.423V353.1C731.423 360.033 729.39 365.433 725.323 369.3C721.257 373.167 715.757 375.1 708.823 375.1C706.423 375.1 704.257 374.833 702.323 374.3C700.457 373.833 698.723 373.2 697.123 372.4C695.59 371.6 694.157 370.667 692.823 369.6C691.557 368.533 690.29 367.433 689.023 366.3L694.523 360.5C696.59 362.433 698.69 363.967 700.823 365.1C703.023 366.233 705.623 366.8 708.623 366.8C713.09 366.8 716.557 365.733 719.023 363.6C721.49 361.467 722.757 358.5 722.823 354.7V351.8C722.823 351.267 722.89 350.7 723.023 350.1C723.157 349.433 723.223 348.933 723.223 348.6C722.623 349.4 721.857 350.267 720.923 351.2C720.057 352.067 719.023 352.867 717.823 353.6C716.623 354.267 715.223 354.833 713.623 355.3C712.023 355.767 710.223 356 708.223 356C705.09 356 702.223 355.433 699.623 354.3C697.023 353.167 694.757 351.633 692.823 349.7C690.89 347.7 689.39 345.4 688.323 342.8C687.257 340.133 686.723 337.267 686.723 334.2ZM695.323 334C695.323 335.933 695.657 337.733 696.323 339.4C697.057 341.067 698.023 342.5 699.223 343.7C700.423 344.9 701.857 345.867 703.523 346.6C705.19 347.267 707.023 347.6 709.023 347.6C711.023 347.6 712.857 347.267 714.523 346.6C716.257 345.867 717.723 344.9 718.923 343.7C720.19 342.433 721.157 341 721.823 339.4C722.49 337.733 722.823 335.933 722.823 334C722.823 332.067 722.49 330.3 721.823 328.7C721.157 327.033 720.19 325.6 718.923 324.4C717.723 323.2 716.257 322.267 714.523 321.6C712.857 320.867 711.023 320.5 709.023 320.5C707.023 320.5 705.19 320.867 703.523 321.6C701.857 322.267 700.423 323.2 699.223 324.4C698.023 325.6 697.057 327.033 696.323 328.7C695.657 330.3 695.323 332.067 695.323 334ZM778.83 350.1C776.83 351.9 774.396 353.333 771.53 354.4C768.663 355.467 765.73 356 762.73 356C759.663 356 756.763 355.433 754.03 354.3C751.363 353.1 749.03 351.533 747.03 349.6C745.03 347.6 743.43 345.267 742.23 342.6C741.096 339.933 740.53 337.1 740.53 334.1C740.53 331.1 741.096 328.267 742.23 325.6C743.43 322.933 745.03 320.6 747.03 318.6C749.03 316.6 751.33 315.033 753.93 313.9C756.596 312.7 759.43 312.1 762.43 312.1C767.163 312.1 771.263 313.533 774.73 316.4C778.263 319.2 780.796 322.9 782.33 327.5C780.263 328.233 777.896 329.133 775.23 330.2C772.563 331.267 769.796 332.4 766.93 333.6C764.063 334.733 761.196 335.867 758.33 337C755.463 338.133 752.796 339.167 750.33 340.1C751.463 342.367 753.096 344.2 755.23 345.6C757.43 346.933 759.863 347.6 762.53 347.6C764.33 347.6 766.13 347.267 767.93 346.6C769.796 345.933 771.296 345.033 772.43 343.9L778.83 350.1ZM771.63 325.5C770.83 323.833 769.563 322.6 767.83 321.8C766.096 320.933 764.33 320.5 762.53 320.5C760.596 320.5 758.796 320.867 757.13 321.6C755.53 322.333 754.13 323.333 752.93 324.6C751.73 325.8 750.763 327.2 750.03 328.8C749.363 330.4 749.03 332.033 749.03 333.7C749.03 334.033 749.03 334.267 749.03 334.4C749.096 334.533 749.13 334.633 749.13 334.7C750.863 334.033 752.73 333.3 754.73 332.5C756.796 331.633 758.83 330.8 760.83 330C762.83 329.133 764.763 328.333 766.63 327.6C768.496 326.8 770.163 326.1 771.63 325.5ZM813.019 316.9L808.519 322.9C808.452 322.833 808.219 322.667 807.819 322.4C807.419 322.133 806.885 321.867 806.219 321.6C805.619 321.333 804.885 321.1 804.019 320.9C803.219 320.633 802.385 320.5 801.519 320.5C800.385 320.5 799.252 320.767 798.119 321.3C797.052 321.833 796.519 322.833 796.519 324.3C796.519 325.567 796.952 326.6 797.819 327.4C798.752 328.2 799.885 328.933 801.219 329.6C802.552 330.2 803.985 330.833 805.519 331.5C807.119 332.167 808.585 333 809.919 334C811.252 334.933 812.352 336.133 813.219 337.6C814.152 339 814.619 340.8 814.619 343C814.619 346.733 813.319 349.833 810.719 352.3C808.185 354.7 804.685 355.9 800.219 355.9C797.619 355.9 795.052 355.467 792.519 354.6C790.052 353.667 788.052 352.333 786.519 350.6C786.985 350.133 787.485 349.533 788.019 348.8C788.619 348.067 789.185 347.367 789.719 346.7C790.319 346.033 790.785 345.5 791.119 345.1C791.519 344.633 791.752 344.4 791.819 344.4C791.819 344.467 792.052 344.667 792.519 345C793.052 345.333 793.719 345.7 794.519 346.1C795.319 346.433 796.219 346.767 797.219 347.1C798.219 347.367 799.219 347.5 800.219 347.5C801.819 347.5 803.185 347.1 804.319 346.3C805.452 345.5 806.019 344.433 806.019 343.1C806.019 341.9 805.552 340.967 804.619 340.3C803.752 339.567 802.652 338.9 801.319 338.3C799.985 337.7 798.519 337.1 796.919 336.5C795.319 335.833 793.852 335 792.519 334C791.185 333 790.052 331.767 789.119 330.3C788.252 328.767 787.819 326.8 787.819 324.4C787.819 322.133 788.219 320.233 789.019 318.7C789.885 317.167 790.952 315.933 792.219 315C793.552 314 795.019 313.3 796.619 312.9C798.219 312.433 799.752 312.2 801.219 312.2C803.152 312.2 805.219 312.6 807.419 313.4C809.619 314.2 811.485 315.367 813.019 316.9ZM150.8 469.9L147.7 463.2H155.1C157.033 467.4 158.667 471.033 160 474.1C161.333 477.1 162.467 479.733 163.4 482C164.333 484.2 165.1 486.067 165.7 487.6C166.3 489.133 166.8 490.433 167.2 491.5C167.6 489.5 168.067 487.7 168.6 486.1C169.2 484.433 169.933 482.6 170.8 480.6C171.667 478.533 172.7 476.167 173.9 473.5C175.167 470.767 176.667 467.333 178.4 463.2H187L167.2 507.5C166 505.033 164.867 502.6 163.8 500.2C162.8 497.733 161.8 495.3 160.8 492.9C159.867 490.5 158.867 488.1 157.8 485.7C156.8 483.3 155.7 480.833 154.5 478.3L141.8 507.5L122.9 463.2H131.5C133.233 467.333 134.667 470.767 135.8 473.5C136.933 476.233 137.867 478.6 138.6 480.6C139.4 482.6 140.033 484.433 140.5 486.1C140.967 487.7 141.4 489.5 141.8 491.5C142.067 490.7 142.367 489.8 142.7 488.8C143.1 487.8 143.6 486.533 144.2 485C144.867 483.4 145.733 481.4 146.8 479C147.867 476.6 149.2 473.567 150.8 469.9ZM192.33 447.2C192.33 445.6 192.896 444.267 194.03 443.2C195.23 442.133 196.496 441.6 197.83 441.6C199.163 441.6 200.396 442.133 201.53 443.2C202.663 444.267 203.23 445.6 203.23 447.2C203.23 448.8 202.663 450.133 201.53 451.2C200.396 452.2 199.163 452.7 197.83 452.7C196.496 452.7 195.23 452.2 194.03 451.2C192.896 450.133 192.33 448.8 192.33 447.2ZM201.93 505H193.43V463.2H201.93V505ZM217.538 444.8H226.038V463.3H237.238V470.9H226.038V505H217.538V470.9H210.038V463.3H217.538V444.8ZM244.309 427.3H252.809V473.3C254.275 469.967 256.342 467.3 259.009 465.3C261.675 463.233 265.109 462.167 269.309 462.1C273.575 462.033 276.975 463.167 279.509 465.5C282.109 467.833 283.475 470.867 283.609 474.6V505H275.009V478.5C274.875 476.367 274.142 474.567 272.809 473.1C271.475 471.567 269.375 470.733 266.509 470.6C264.509 470.6 262.675 470.967 261.009 471.7C259.342 472.367 257.909 473.3 256.709 474.5C255.509 475.7 254.542 477.133 253.809 478.8C253.142 480.467 252.809 482.3 252.809 484.3V505H244.309V427.3ZM362.634 436.5L358.734 445.4C356.001 444.4 353.268 443.6 350.534 443C347.868 442.4 345.301 442.1 342.834 442.1C338.634 442.1 335.268 442.967 332.734 444.7C330.268 446.433 329.034 448.633 329.034 451.3C329.034 453.567 329.934 455.4 331.734 456.8C333.534 458.133 335.768 459.367 338.434 460.5C341.101 461.567 344.001 462.667 347.134 463.8C350.268 464.867 353.168 466.267 355.834 468C358.501 469.733 360.734 471.933 362.534 474.6C364.334 477.2 365.234 480.567 365.234 484.7C365.234 487.9 364.634 490.8 363.434 493.4C362.301 495.933 360.568 498.133 358.234 500C355.968 501.867 353.101 503.3 349.634 504.3C346.234 505.3 342.234 505.8 337.634 505.8C334.701 505.8 332.034 505.6 329.634 505.2C327.301 504.8 325.168 504.3 323.234 503.7C321.368 503.033 319.701 502.333 318.234 501.6C316.834 500.867 315.634 500.2 314.634 499.6L319.434 490.1C322.101 491.633 325.068 492.867 328.334 493.8C331.601 494.733 334.568 495.2 337.234 495.2C338.568 495.2 340.201 495.033 342.134 494.7C344.134 494.367 346.034 493.8 347.834 493C349.634 492.133 351.168 491 352.434 489.6C353.768 488.2 354.434 486.433 354.434 484.3C354.434 482.367 353.901 480.733 352.834 479.4C351.834 478 350.468 476.8 348.734 475.8C347.068 474.733 345.134 473.8 342.934 473C340.801 472.133 338.601 471.267 336.334 470.4C334.068 469.467 331.834 468.5 329.634 467.5C327.501 466.5 325.568 465.3 323.834 463.9C322.168 462.433 320.801 460.767 319.734 458.9C318.734 456.967 318.234 454.667 318.234 452C318.234 449.533 318.734 447.1 319.734 444.7C320.734 442.3 322.234 440.167 324.234 438.3C326.234 436.433 328.701 434.933 331.634 433.8C334.634 432.667 338.101 432.1 342.034 432.1C344.434 432.1 346.768 432.3 349.034 432.7C351.368 433.1 353.468 433.567 355.334 434.1C357.201 434.567 358.768 435.033 360.034 435.5C361.368 435.967 362.234 436.3 362.634 436.5ZM376.717 444.8H385.217V463.3H396.417V470.9H385.217V505H376.717V470.9H369.217V463.3H376.717V444.8ZM399.709 484.5C399.709 481.433 400.276 478.567 401.409 475.9C402.609 473.167 404.209 470.8 406.209 468.8C408.209 466.733 410.509 465.1 413.109 463.9C415.776 462.7 418.609 462.1 421.609 462.1C423.609 462.1 425.443 462.367 427.109 462.9C428.776 463.367 430.209 463.967 431.409 464.7C432.609 465.433 433.576 466.2 434.309 467C435.043 467.8 435.543 468.5 435.809 469.1L436.209 463.2H444.409V505H435.809V499.7C435.476 500.233 434.943 500.867 434.209 501.6C433.476 502.333 432.509 503.033 431.309 503.7C430.176 504.3 428.809 504.833 427.209 505.3C425.609 505.767 423.776 506 421.709 506C418.509 506 415.543 505.433 412.809 504.3C410.143 503.1 407.843 501.533 405.909 499.6C403.976 497.6 402.443 495.3 401.309 492.7C400.243 490.1 399.709 487.367 399.709 484.5ZM408.309 484C408.309 485.933 408.643 487.733 409.309 489.4C410.043 491.067 411.009 492.5 412.209 493.7C413.409 494.9 414.843 495.867 416.509 496.6C418.176 497.267 420.009 497.6 422.009 497.6C424.009 497.6 425.843 497.267 427.509 496.6C429.243 495.867 430.709 494.9 431.909 493.7C433.176 492.433 434.143 491 434.809 489.4C435.476 487.733 435.809 485.933 435.809 484C435.809 482.067 435.476 480.3 434.809 478.7C434.143 477.033 433.176 475.6 431.909 474.4C430.709 473.2 429.243 472.267 427.509 471.6C425.843 470.867 424.009 470.5 422.009 470.5C420.009 470.5 418.176 470.867 416.509 471.6C414.843 472.267 413.409 473.2 412.209 474.4C411.009 475.6 410.043 477.033 409.309 478.7C408.643 480.3 408.309 482.067 408.309 484ZM460.018 444.8H468.518V463.3H479.718V470.9H468.518V505H460.018V470.9H452.518V463.3H460.018V444.8ZM485.689 447.2C485.689 445.6 486.256 444.267 487.389 443.2C488.589 442.133 489.856 441.6 491.189 441.6C492.522 441.6 493.756 442.133 494.889 443.2C496.022 444.267 496.589 445.6 496.589 447.2C496.589 448.8 496.022 450.133 494.889 451.2C493.756 452.2 492.522 452.7 491.189 452.7C489.856 452.7 488.589 452.2 487.389 451.2C486.256 450.133 485.689 448.8 485.689 447.2ZM495.289 505H486.789V463.2H495.289V505ZM535.297 494.7C536.23 495.833 537.097 496.933 537.897 498C538.764 499 539.63 500.067 540.497 501.2C538.63 502.667 536.53 503.833 534.197 504.7C531.864 505.567 529.33 506 526.597 506C523.53 506 520.63 505.433 517.897 504.3C515.23 503.1 512.897 501.5 510.897 499.5C508.897 497.5 507.297 495.167 506.097 492.5C504.964 489.833 504.397 487 504.397 484C504.397 481 504.964 478.167 506.097 475.5C507.297 472.833 508.897 470.533 510.897 468.6C512.897 466.6 515.23 465.033 517.897 463.9C520.63 462.7 523.53 462.1 526.597 462.1C529.397 462.1 531.964 462.533 534.297 463.4C536.697 464.267 538.864 465.433 540.797 466.9L535.297 473.4C534.164 472.467 532.864 471.767 531.397 471.3C529.93 470.767 528.33 470.5 526.597 470.5C524.597 470.5 522.764 470.867 521.097 471.6C519.43 472.267 517.964 473.2 516.697 474.4C515.497 475.6 514.564 477.033 513.897 478.7C513.23 480.3 512.897 482.067 512.897 484C512.897 485.933 513.23 487.733 513.897 489.4C514.564 491 515.497 492.433 516.697 493.7C517.964 494.9 519.43 495.867 521.097 496.6C522.764 497.267 524.597 497.6 526.597 497.6C528.33 497.6 529.93 497.367 531.397 496.9C532.864 496.367 534.164 495.633 535.297 494.7ZM616.345 436.5L612.445 445.4C609.712 444.4 606.979 443.6 604.245 443C601.579 442.4 599.012 442.1 596.545 442.1C592.345 442.1 588.979 442.967 586.445 444.7C583.979 446.433 582.745 448.633 582.745 451.3C582.745 453.567 583.645 455.4 585.445 456.8C587.245 458.133 589.479 459.367 592.145 460.5C594.812 461.567 597.712 462.667 600.845 463.8C603.979 464.867 606.879 466.267 609.545 468C612.212 469.733 614.445 471.933 616.245 474.6C618.045 477.2 618.945 480.567 618.945 484.7C618.945 487.9 618.345 490.8 617.145 493.4C616.012 495.933 614.279 498.133 611.945 500C609.679 501.867 606.812 503.3 603.345 504.3C599.945 505.3 595.945 505.8 591.345 505.8C588.412 505.8 585.745 505.6 583.345 505.2C581.012 504.8 578.879 504.3 576.945 503.7C575.079 503.033 573.412 502.333 571.945 501.6C570.545 500.867 569.345 500.2 568.345 499.6L573.145 490.1C575.812 491.633 578.779 492.867 582.045 493.8C585.312 494.733 588.279 495.2 590.945 495.2C592.279 495.2 593.912 495.033 595.845 494.7C597.845 494.367 599.745 493.8 601.545 493C603.345 492.133 604.879 491 606.145 489.6C607.479 488.2 608.145 486.433 608.145 484.3C608.145 482.367 607.612 480.733 606.545 479.4C605.545 478 604.179 476.8 602.445 475.8C600.779 474.733 598.845 473.8 596.645 473C594.512 472.133 592.312 471.267 590.045 470.4C587.779 469.467 585.545 468.5 583.345 467.5C581.212 466.5 579.279 465.3 577.545 463.9C575.879 462.433 574.512 460.767 573.445 458.9C572.445 456.967 571.945 454.667 571.945 452C571.945 449.533 572.445 447.1 573.445 444.7C574.445 442.3 575.945 440.167 577.945 438.3C579.945 436.433 582.412 434.933 585.345 433.8C588.345 432.667 591.812 432.1 595.745 432.1C598.145 432.1 600.479 432.3 602.745 432.7C605.079 433.1 607.179 433.567 609.045 434.1C610.912 434.567 612.479 435.033 613.745 435.5C615.079 435.967 615.945 436.3 616.345 436.5ZM626.509 447.2C626.509 445.6 627.076 444.267 628.209 443.2C629.409 442.133 630.676 441.6 632.009 441.6C633.343 441.6 634.576 442.133 635.709 443.2C636.843 444.267 637.409 445.6 637.409 447.2C637.409 448.8 636.843 450.133 635.709 451.2C634.576 452.2 633.343 452.7 632.009 452.7C630.676 452.7 629.409 452.2 628.209 451.2C627.076 450.133 626.509 448.8 626.509 447.2ZM636.109 505H627.609V463.2H636.109V505ZM651.717 444.8H660.217V463.3H671.417V470.9H660.217V505H651.717V470.9H644.217V463.3H651.717V444.8ZM713.009 500.1C711.009 501.9 708.576 503.333 705.709 504.4C702.843 505.467 699.909 506 696.909 506C693.843 506 690.943 505.433 688.209 504.3C685.543 503.1 683.209 501.533 681.209 499.6C679.209 497.6 677.609 495.267 676.409 492.6C675.276 489.933 674.709 487.1 674.709 484.1C674.709 481.1 675.276 478.267 676.409 475.6C677.609 472.933 679.209 470.6 681.209 468.6C683.209 466.6 685.509 465.033 688.109 463.9C690.776 462.7 693.609 462.1 696.609 462.1C701.343 462.1 705.443 463.533 708.909 466.4C712.443 469.2 714.976 472.9 716.509 477.5C714.443 478.233 712.076 479.133 709.409 480.2C706.743 481.267 703.976 482.4 701.109 483.6C698.243 484.733 695.376 485.867 692.509 487C689.643 488.133 686.976 489.167 684.509 490.1C685.643 492.367 687.276 494.2 689.409 495.6C691.609 496.933 694.043 497.6 696.709 497.6C698.509 497.6 700.309 497.267 702.109 496.6C703.976 495.933 705.476 495.033 706.609 493.9L713.009 500.1ZM705.809 475.5C705.009 473.833 703.743 472.6 702.009 471.8C700.276 470.933 698.509 470.5 696.709 470.5C694.776 470.5 692.976 470.867 691.309 471.6C689.709 472.333 688.309 473.333 687.109 474.6C685.909 475.8 684.943 477.2 684.209 478.8C683.543 480.4 683.209 482.033 683.209 483.7C683.209 484.033 683.209 484.267 683.209 484.4C683.276 484.533 683.309 484.633 683.309 484.7C685.043 484.033 686.909 483.3 688.909 482.5C690.976 481.633 693.009 480.8 695.009 480C697.009 479.133 698.943 478.333 700.809 477.6C702.676 476.8 704.343 476.1 705.809 475.5ZM803.945 470.3V500.7C801.145 502.3 797.812 503.567 793.945 504.5C790.079 505.367 786.145 505.8 782.145 505.8C776.412 505.8 771.245 504.9 766.645 503.1C762.112 501.3 758.212 498.833 754.945 495.7C751.679 492.5 749.179 488.733 747.445 484.4C745.712 480.067 744.845 475.333 744.845 470.2C744.845 464.533 745.845 459.367 747.845 454.7C749.912 449.967 752.679 445.9 756.145 442.5C759.679 439.1 763.712 436.467 768.245 434.6C772.845 432.667 777.712 431.7 782.845 431.7C786.312 431.7 789.945 432.167 793.745 433.1C797.545 433.967 800.845 435.233 803.645 436.9L798.345 445.8C797.345 445.2 796.179 444.667 794.845 444.2C793.579 443.733 792.245 443.333 790.845 443C789.445 442.667 788.045 442.433 786.645 442.3C785.245 442.1 783.912 442 782.645 442C779.112 442 775.712 442.7 772.445 444.1C769.179 445.5 766.312 447.433 763.845 449.9C761.379 452.367 759.412 455.267 757.945 458.6C756.479 461.933 755.745 465.533 755.745 469.4C755.745 472.933 756.379 476.267 757.645 479.4C758.979 482.533 760.812 485.3 763.145 487.7C765.479 490.1 768.279 492 771.545 493.4C774.812 494.8 778.412 495.5 782.345 495.5C783.879 495.5 785.679 495.367 787.745 495.1C789.879 494.767 791.912 494.233 793.845 493.5V479.7H779.745V470.3H803.945ZM849.826 500.1C847.826 501.9 845.392 503.333 842.526 504.4C839.659 505.467 836.726 506 833.726 506C830.659 506 827.759 505.433 825.026 504.3C822.359 503.1 820.026 501.533 818.026 499.6C816.026 497.6 814.426 495.267 813.226 492.6C812.092 489.933 811.526 487.1 811.526 484.1C811.526 481.1 812.092 478.267 813.226 475.6C814.426 472.933 816.026 470.6 818.026 468.6C820.026 466.6 822.326 465.033 824.926 463.9C827.592 462.7 830.426 462.1 833.426 462.1C838.159 462.1 842.259 463.533 845.726 466.4C849.259 469.2 851.792 472.9 853.326 477.5C851.259 478.233 848.892 479.133 846.226 480.2C843.559 481.267 840.792 482.4 837.926 483.6C835.059 484.733 832.192 485.867 829.326 487C826.459 488.133 823.792 489.167 821.326 490.1C822.459 492.367 824.092 494.2 826.226 495.6C828.426 496.933 830.859 497.6 833.526 497.6C835.326 497.6 837.126 497.267 838.926 496.6C840.792 495.933 842.292 495.033 843.426 493.9L849.826 500.1ZM842.626 475.5C841.826 473.833 840.559 472.6 838.826 471.8C837.092 470.933 835.326 470.5 833.526 470.5C831.592 470.5 829.792 470.867 828.126 471.6C826.526 472.333 825.126 473.333 823.926 474.6C822.726 475.8 821.759 477.2 821.026 478.8C820.359 480.4 820.026 482.033 820.026 483.7C820.026 484.033 820.026 484.267 820.026 484.4C820.092 484.533 820.126 484.633 820.126 484.7C821.859 484.033 823.726 483.3 825.726 482.5C827.792 481.633 829.826 480.8 831.826 480C833.826 479.133 835.759 478.333 837.626 477.6C839.492 476.8 841.159 476.1 842.626 475.5ZM860.715 463.2H868.215C868.348 465.267 868.448 467.167 868.515 468.9C868.648 470.567 868.782 472.233 868.915 473.9C870.448 470.3 872.615 467.433 875.415 465.3C878.282 463.167 881.782 462.1 885.915 462.1C890.115 462.1 893.482 463.267 896.015 465.6C898.548 467.933 899.882 470.933 900.015 474.6V505H891.415V478.5C891.282 476.367 890.548 474.567 889.215 473.1C887.882 471.567 885.782 470.733 882.915 470.6C880.915 470.6 879.082 470.967 877.415 471.7C875.748 472.367 874.315 473.3 873.115 474.5C871.915 475.7 870.948 477.133 870.215 478.8C869.548 480.467 869.215 482.3 869.215 484.3V505H860.715V463.2ZM946.994 500.1C944.994 501.9 942.56 503.333 939.694 504.4C936.827 505.467 933.894 506 930.894 506C927.827 506 924.927 505.433 922.194 504.3C919.527 503.1 917.194 501.533 915.194 499.6C913.194 497.6 911.594 495.267 910.394 492.6C909.26 489.933 908.694 487.1 908.694 484.1C908.694 481.1 909.26 478.267 910.394 475.6C911.594 472.933 913.194 470.6 915.194 468.6C917.194 466.6 919.494 465.033 922.094 463.9C924.76 462.7 927.594 462.1 930.594 462.1C935.327 462.1 939.427 463.533 942.894 466.4C946.427 469.2 948.96 472.9 950.494 477.5C948.427 478.233 946.06 479.133 943.394 480.2C940.727 481.267 937.96 482.4 935.094 483.6C932.227 484.733 929.36 485.867 926.494 487C923.627 488.133 920.96 489.167 918.494 490.1C919.627 492.367 921.26 494.2 923.394 495.6C925.594 496.933 928.027 497.6 930.694 497.6C932.494 497.6 934.294 497.267 936.094 496.6C937.96 495.933 939.46 495.033 940.594 493.9L946.994 500.1ZM939.794 475.5C938.994 473.833 937.727 472.6 935.994 471.8C934.26 470.933 932.494 470.5 930.694 470.5C928.76 470.5 926.96 470.867 925.294 471.6C923.694 472.333 922.294 473.333 921.094 474.6C919.894 475.8 918.927 477.2 918.194 478.8C917.527 480.4 917.194 482.033 917.194 483.7C917.194 484.033 917.194 484.267 917.194 484.4C917.26 484.533 917.294 484.633 917.294 484.7C919.027 484.033 920.894 483.3 922.894 482.5C924.96 481.633 926.994 480.8 928.994 480C930.994 479.133 932.927 478.333 934.794 477.6C936.66 476.8 938.327 476.1 939.794 475.5ZM980.883 473.1C979.016 473.1 977.216 473.367 975.483 473.9C973.749 474.367 972.183 475.1 970.783 476.1C969.449 477.1 968.383 478.367 967.583 479.9C966.783 481.367 966.383 483.067 966.383 485V505H957.883V463.2H965.383C965.516 465.267 965.616 467.167 965.683 468.9C965.816 470.567 965.949 472.233 966.083 473.9C966.949 472.1 968.083 470.467 969.483 469C970.883 467.533 972.383 466.3 973.983 465.3C975.583 464.3 977.149 463.533 978.683 463C980.216 462.4 981.583 462.1 982.783 462.1L980.883 473.1ZM985.256 484.5C985.256 481.433 985.823 478.567 986.956 475.9C988.156 473.167 989.756 470.8 991.756 468.8C993.756 466.733 996.056 465.1 998.656 463.9C1001.32 462.7 1004.16 462.1 1007.16 462.1C1009.16 462.1 1010.99 462.367 1012.66 462.9C1014.32 463.367 1015.76 463.967 1016.96 464.7C1018.16 465.433 1019.12 466.2 1019.86 467C1020.59 467.8 1021.09 468.5 1021.36 469.1L1021.76 463.2H1029.96V505H1021.36V499.7C1021.02 500.233 1020.49 500.867 1019.76 501.6C1019.02 502.333 1018.06 503.033 1016.86 503.7C1015.72 504.3 1014.36 504.833 1012.76 505.3C1011.16 505.767 1009.32 506 1007.26 506C1004.06 506 1001.09 505.433 998.356 504.3C995.69 503.1 993.39 501.533 991.456 499.6C989.523 497.6 987.99 495.3 986.856 492.7C985.79 490.1 985.256 487.367 985.256 484.5ZM993.856 484C993.856 485.933 994.19 487.733 994.856 489.4C995.59 491.067 996.556 492.5 997.756 493.7C998.956 494.9 1000.39 495.867 1002.06 496.6C1003.72 497.267 1005.56 497.6 1007.56 497.6C1009.56 497.6 1011.39 497.267 1013.06 496.6C1014.79 495.867 1016.26 494.9 1017.46 493.7C1018.72 492.433 1019.69 491 1020.36 489.4C1021.02 487.733 1021.36 485.933 1021.36 484C1021.36 482.067 1021.02 480.3 1020.36 478.7C1019.69 477.033 1018.72 475.6 1017.46 474.4C1016.26 473.2 1014.79 472.267 1013.06 471.6C1011.39 470.867 1009.56 470.5 1007.56 470.5C1005.56 470.5 1003.72 470.867 1002.06 471.6C1000.39 472.267 998.956 473.2 997.756 474.4C996.556 475.6 995.59 477.033 994.856 478.7C994.19 480.3 993.856 482.067 993.856 484ZM1045.56 444.8H1054.06V463.3H1065.26V470.9H1054.06V505H1045.56V470.9H1038.06V463.3H1045.56V444.8ZM1068.56 484C1068.56 481 1069.12 478.167 1070.26 475.5C1071.46 472.833 1073.06 470.533 1075.06 468.6C1077.06 466.6 1079.39 465.033 1082.06 463.9C1084.79 462.7 1087.72 462.1 1090.86 462.1C1093.99 462.1 1096.89 462.7 1099.56 463.9C1102.29 465.033 1104.62 466.6 1106.56 468.6C1108.56 470.533 1110.09 472.833 1111.16 475.5C1112.29 478.167 1112.86 481 1112.86 484C1112.86 487 1112.29 489.833 1111.16 492.5C1110.09 495.167 1108.56 497.5 1106.56 499.5C1104.62 501.5 1102.29 503.1 1099.56 504.3C1096.89 505.433 1093.96 506 1090.76 506C1087.69 506 1084.79 505.467 1082.06 504.4C1079.39 503.333 1077.06 501.833 1075.06 499.9C1073.06 497.967 1071.46 495.667 1070.26 493C1069.12 490.267 1068.56 487.267 1068.56 484ZM1077.06 484.1C1077.06 485.967 1077.39 487.733 1078.06 489.4C1078.79 491 1079.76 492.433 1080.96 493.7C1082.22 494.9 1083.66 495.867 1085.26 496.6C1086.92 497.267 1088.69 497.6 1090.56 497.6C1092.42 497.6 1094.19 497.267 1095.86 496.6C1097.52 495.867 1098.96 494.9 1100.16 493.7C1101.42 492.433 1102.42 491 1103.16 489.4C1103.89 487.733 1104.26 485.967 1104.26 484.1C1104.26 482.233 1103.89 480.467 1103.16 478.8C1102.42 477.133 1101.42 475.7 1100.16 474.5C1098.96 473.233 1097.52 472.267 1095.86 471.6C1094.19 470.867 1092.42 470.5 1090.56 470.5C1088.69 470.5 1086.92 470.867 1085.26 471.6C1083.66 472.267 1082.22 473.233 1080.96 474.5C1079.76 475.7 1078.79 477.133 1078.06 478.8C1077.39 480.467 1077.06 482.233 1077.06 484.1ZM1144.95 473.1C1143.08 473.1 1141.28 473.367 1139.55 473.9C1137.81 474.367 1136.25 475.1 1134.85 476.1C1133.51 477.1 1132.45 478.367 1131.65 479.9C1130.85 481.367 1130.45 483.067 1130.45 485V505H1121.95V463.2H1129.45C1129.58 465.267 1129.68 467.167 1129.75 468.9C1129.88 470.567 1130.01 472.233 1130.15 473.9C1131.01 472.1 1132.15 470.467 1133.55 469C1134.95 467.533 1136.45 466.3 1138.05 465.3C1139.65 464.3 1141.21 463.533 1142.75 463C1144.28 462.4 1145.65 462.1 1146.85 462.1L1144.95 473.1Z"/><path fill="#000" d="M122 217.5H732.953V222.5H122V217.5Z"/><path fill="#000" d="M982.619 307.27C982.619 308.278 981.46 309.085 979.998 309.085C978.335 309.236 977.175 308.429 977.175 307.27C977.175 306.262 978.335 305.456 979.796 305.456C981.308 305.304 982.619 306.111 982.619 307.27ZM966.944 305.002C966.591 306.01 967.599 307.169 969.111 307.472C970.421 307.976 971.933 307.472 972.236 306.464C972.538 305.456 971.581 304.296 970.069 303.843C968.758 303.49 967.296 303.994 966.944 305.002ZM989.222 304.145C987.76 304.498 986.752 305.456 986.903 306.615C987.054 307.623 988.365 308.278 989.877 307.925C991.339 307.573 992.347 306.615 992.196 305.607C992.044 304.649 990.683 303.994 989.222 304.145ZM1022.39 111C952.478 111 899 164.075 899 233.984C899 289.881 934.181 337.714 984.433 354.548C990.885 355.708 993.153 351.726 993.153 348.45C993.153 345.325 993.002 328.087 993.002 317.502C993.002 317.502 957.72 325.063 950.31 302.482C950.31 302.482 944.565 287.815 936.298 284.034C936.298 284.034 924.756 276.121 937.105 276.272C937.105 276.272 949.655 277.28 956.56 289.276C967.599 308.732 986.097 303.137 993.304 299.811C994.464 291.746 997.74 286.151 1001.37 282.825C973.194 279.7 944.766 275.617 944.766 227.129C944.766 213.268 948.597 206.313 956.661 197.442C955.351 194.165 951.067 180.657 957.972 163.218C968.506 159.942 992.75 176.827 992.75 176.827C1002.83 174.004 1013.67 172.542 1024.4 172.542C1035.14 172.542 1045.98 174.004 1056.06 176.827C1056.06 176.827 1080.3 159.891 1090.83 163.218C1097.74 180.708 1093.46 194.165 1092.15 197.442C1100.21 206.363 1105.15 213.319 1105.15 227.129C1105.15 275.768 1075.46 279.649 1047.29 282.825C1051.92 286.806 1055.85 294.367 1055.85 306.212C1055.85 323.198 1055.7 344.216 1055.7 348.349C1055.7 351.625 1058.02 355.607 1064.42 354.448C1114.83 337.714 1149 289.881 1149 233.984C1149 164.075 1092.3 111 1022.39 111ZM947.992 284.841C947.337 285.345 947.488 286.504 948.345 287.462C949.151 288.268 950.31 288.621 950.966 287.966C951.621 287.462 951.47 286.302 950.613 285.345C949.806 284.538 948.647 284.186 947.992 284.841ZM942.548 280.758C942.196 281.413 942.7 282.22 943.708 282.724C944.514 283.228 945.522 283.077 945.875 282.371C946.228 281.716 945.724 280.909 944.716 280.405C943.708 280.103 942.901 280.254 942.548 280.758ZM958.879 298.702C958.073 299.357 958.375 300.869 959.534 301.827C960.694 302.986 962.155 303.137 962.81 302.331C963.466 301.675 963.163 300.163 962.155 299.206C961.046 298.046 959.534 297.895 958.879 298.702ZM953.133 291.292C952.327 291.796 952.327 293.107 953.133 294.266C953.94 295.425 955.3 295.929 955.956 295.425C956.762 294.77 956.762 293.46 955.956 292.3C955.25 291.141 953.94 290.637 953.133 291.292Z"/><defs><filter id="filter0_d" width="1288" height="648" x="0" y="0" color-interpolation-filters="sRGB" filterUnits="userSpaceOnUse"><feFlood flood-opacity="0" result="BackgroundImageFix"/><feColorMatrix in="SourceAlpha" type="matrix" values="0 0 0 0 0 0 0 0 0 0 0 0 0 0 0 0 0 0 127 0"/><feOffset dy="4"/><feGaussianBlur stdDeviation="2"/><feColorMatrix type="matrix" values="0 0 0 0 0 0 0 0 0 0 0 0 0 0 0 0 0 0 0.25 0"/><feBlend in2="BackgroundImageFix" mode="normal" result="effect1_dropShadow"/><feBlend in="SourceGraphic" in2="effect1_dropShadow" mode="normal" result="shape"/></filter></defs></svg>